<svg viewBox="0 0 300 250" xmlns="http://www.w3.org/2000/svg" xmlns:xlink="http://www.w3.org/1999/xlink"><clipPath id="a"><path d="m42-136-35 90h-391.7l33.7-90z"/></clipPath><clipPath id="b"><path d="m150-136v90h-143l35-90z"/></clipPath><clipPath id="c"><path d="m0 0h300v250h-300z"/></clipPath><clipPath id="d"><path d="m0 164.5h300v85.5h-300z"/></clipPath><clipPath id="e"><path d="m0 289h250v250h-250z"/></clipPath><clipPath id="f"><path d="m1.94 5.43h300v250h-300z"/></clipPath><g clip-path="url(#a)" fill="#009eed"><path d="m126.7.6c-.1 0-.1 0-.2-.1a.19.19 0 0 1 0-.3l3.1-2.8a.19.19 0 0 1 .3 0 .19.19 0 0 1 0 .3l-3.1 2.8c0 .1 0 .1-.1.1z"/><path d="m105.3.4c-.1 0-.2 0-.2-.1s-1.2-2-3-1.6l-.3.1c-1.9.5-3.6.9-5-.7a.19.19 0 0 1 0-.3.19.19 0 0 1 .3 0c1.3 1.4 2.7 1 4.6.5l.3-.1c2.1-.6 3.5 1.7 3.6 1.8s0 .2-.1.3-.2.1-.2.1z"/><circle cx="159.6" cy="2.6" r=".6"/><path d="m62.5.5a3.14 3.14 0 0 1 -3.2-3.1 3.14 3.14 0 0 1 3.2-3.1 3.14 3.14 0 0 1 3.2 3.1 3.14 3.14 0 0 1 -3.2 3.1zm0-5.8a2.78 2.78 0 0 0 -2.8 2.7 2.71 2.71 0 0 0 2.8 2.7 2.78 2.78 0 0 0 2.8-2.7 2.78 2.78 0 0 0 -2.8-2.7z"/><path d="m18.7 19.4a.22.22 0 0 1 -.2-.2v-4.1a.2.2 0 1 1 .4 0v4.1a.22.22 0 0 1 -.2.2z"/><path d="m5.8 14.2-6.4-2.2a.19.19 0 0 1 -.1-.3l2.3-6.2a.19.19 0 0 1 .3-.1l6.3 2.2a.19.19 0 0 1 .1.3l-2.3 6.2c0 .1-.1.1-.2.1zm-6-2.5 5.9 2.1 2.1-5.8-5.9-2.1z"/><path d="m41.7 14.3h-.1a.37.37 0 0 1 -.1-.3c.1-.1 1.4-2.3 3.6-1.8l.3.1c1.9.5 3.3.9 4.6-.5a.21.21 0 1 1 .3.3c-1.4 1.6-3.1 1.2-5 .7l-.3-.1c-1.8-.5-3 1.5-3 1.6z"/><circle cx="32.4" cy="9.1" r="1.3"/><circle cx="62.5" cy="15.7" r=".9"/><path d="m84.4 14.5a3.1 3.1 0 1 1 3.2-3.1 3.14 3.14 0 0 1 -3.2 3.1zm0-5.9a2.78 2.78 0 0 0 -2.8 2.7 2.71 2.71 0 0 0 2.8 2.7 2.78 2.78 0 0 0 2.8-2.7 2.71 2.71 0 0 0 -2.8-2.7z"/><path d="m105.1 13.7c-.1 0-.1 0-.2-.1l-3.8-3.3a.21.21 0 0 1 .3-.3l3.8 3.3a.19.19 0 0 1 0 .3z"/><path d="m138.1 15a.22.22 0 0 1 -.2-.2l-1.3-3.9a.37.37 0 0 1 .1-.3.37.37 0 0 1 .3.1l1.3 3.9c0 .3 0 .4-.2.4z"/><path d="m153.2 14.6c-.1 0-.1 0-.2-.1l-2.1-1.9a.37.37 0 0 1 -.1-.3l1.2-2.5c0-.1.1-.1.2-.1l2.8.3a.22.22 0 0 1 .2.2l.5 2.7c0 .1 0 .2-.1.2l-2.5 1.3zm-1.8-2.2 1.8 1.7 2.2-1.2-.5-2.4-2.5-.3z"/><ellipse cx="121.1" cy="13.3" rx="1.6" ry="1.5"/><circle cx="75.2" cy="8.4" r=".6"/><path d="m155 27a3.1 3.1 0 1 1 3.2-3.1 3.2 3.2 0 0 1 -3.2 3.1zm0-5.9a2.78 2.78 0 0 0 -2.8 2.7 2.71 2.71 0 0 0 2.8 2.7 2.7 2.7 0 1 0 0-5.4z"/><path d="m132.9 26.7c-.1 0-.1 0-.2-.1l-3.8-3.3a.21.21 0 0 1 .3-.3l3.8 3.3a.19.19 0 0 1 0 .3.1.1 0 0 1 -.1.1z"/><path d="m97 29.7h-.1a.37.37 0 0 1 -.1-.3l2.1-3.6a.22.22 0 0 1 .4.2l-2.1 3.6a.35.35 0 0 1 -.2.1z"/><path d="m79.8 27c-.1 0-.1 0-.2-.1l-1.6-2.3a.19.19 0 0 1 0-.3l1.7-2.2a.37.37 0 0 1 .3-.1l2.7.9c.1 0 .2.1.1.2v2.9a.22.22 0 0 1 -.2.2zm-1.3-2.5 1.4 2 2.4-.7.1-2.4-2.4-.8z"/><circle cx="114.6" cy="23.8" r=".6"/><path d="m42.7 25.2c-.1 0-.1 0-.2-.1l-3.1-2.8a.21.21 0 1 1 .3-.3l3.1 2.8a.19.19 0 0 1 0 .3.1.1 0 0 1 -.1.1z"/><path d="m64.5 32.4-6.4-2.2a.1.1 0 0 1 -.1-.1v-.2l2.3-6.2a.19.19 0 0 1 .3-.1l6.3 2.2a.1.1 0 0 1 .1.1v.2l-2.3 6.2a.35.35 0 0 1 -.2.1zm-6-2.6 5.9 2.1 2.1-5.8-5.9-2.1z"/><path d="m-5.8 25.9c-.1 0-.1 0-.2-.1a.19.19 0 0 1 0-.3c1.4-1.6 3.1-1.2 5-.7l.3.1c1.8.5 3-1.5 3-1.6a.37.37 0 0 1 .3-.1.37.37 0 0 1 .1.3s-1.4 2.3-3.6 1.8h-.1c-1.9-.5-3.3-.9-4.6.5-.1.1-.1.1-.2.1z"/><circle cx="28.7" cy="26.2" r=".6"/></g><g clip-path="url(#b)" fill="#005499"><path d="m104.4.6c-.1 0-.1 0-.2-.1a.19.19 0 0 1 0-.3l3.1-2.8a.19.19 0 0 1 .3 0 .19.19 0 0 1 0 .3l-3.1 2.8a.1.1 0 0 1 -.1.1z"/><path d="m82.9.4c-.1 0-.2 0-.2-.1s-1.2-2-3-1.6l-.3.1c-1.9.5-3.6.9-5-.7a.19.19 0 0 1 0-.3.19.19 0 0 1 .3 0c1.3 1.4 2.7 1 4.6.5l.3-.1c2.1-.6 3.5 1.7 3.6 1.8s0 .2-.1.3-.1.1-.2.1z"/><circle cx="137.2" cy="2.6" r=".6"/><path d="m40.1.5a3.14 3.14 0 0 1 -3.2-3.1 3.14 3.14 0 0 1 3.2-3.1 3.14 3.14 0 0 1 3.2 3.1 3.14 3.14 0 0 1 -3.2 3.1zm0-5.8a2.78 2.78 0 0 0 -2.8 2.7 2.71 2.71 0 0 0 2.8 2.7 2.78 2.78 0 0 0 2.8-2.7 2.71 2.71 0 0 0 -2.8-2.7z"/><path d="m19.3 14.3h-.1a.37.37 0 0 1 -.1-.3c.1-.1 1.4-2.3 3.6-1.8l.3.1c1.9.5 3.3.9 4.6-.5a.21.21 0 1 1 .3.3c-1.4 1.6-3.1 1.2-5 .7l-.3-.1c-1.8-.5-3 1.5-3 1.6z"/><circle cx="10.1" cy="9.1" r="1.3"/><circle cx="40.1" cy="15.7" r=".9"/><path d="m62.1 14.5a3.1 3.1 0 1 1 3.2-3.1 3.14 3.14 0 0 1 -3.2 3.1zm0-5.9a2.78 2.78 0 0 0 -2.8 2.7 2.71 2.71 0 0 0 2.8 2.7 2.78 2.78 0 0 0 2.8-2.7 2.78 2.78 0 0 0 -2.8-2.7z"/><path d="m82.7 13.7c-.1 0-.1 0-.2-.1l-3.8-3.3a.21.21 0 1 1 .3-.3l3.8 3.3a.19.19 0 0 1 0 .3.1.1 0 0 1 -.1.1z"/><path d="m115.7 15a.22.22 0 0 1 -.2-.2l-1.3-3.9a.37.37 0 0 1 .1-.3.37.37 0 0 1 .3.1l1.3 3.9c.1.3 0 .4-.2.4z"/><path d="m130.8 14.6c-.1 0-.1 0-.2-.1l-2.1-1.9a.37.37 0 0 1 -.1-.3l1.2-2.5c0-.1.1-.1.2-.1l2.8.3a.22.22 0 0 1 .2.2l.5 2.7c0 .1 0 .2-.1.2l-2.5 1.3c.2.2.2.2.1.2zm-1.8-2.2 1.8 1.7 2.2-1.2-.5-2.4-2.5-.3z"/><ellipse cx="98.7" cy="13.3" rx="1.6" ry="1.5"/><circle cx="52.8" cy="8.4" r=".6"/><path d="m132.6 27a3.1 3.1 0 1 1 3.2-3.1 3.14 3.14 0 0 1 -3.2 3.1zm0-5.9a2.78 2.78 0 0 0 -2.8 2.7 2.71 2.71 0 0 0 2.8 2.7 2.7 2.7 0 1 0 0-5.4z"/><path d="m110.5 26.7c-.1 0-.1 0-.2-.1l-3.8-3.3a.21.21 0 0 1 .3-.3l3.8 3.3a.19.19 0 0 1 0 .3c0 .1 0 .1-.1.1z"/><path d="m74.7 29.7h-.1a.37.37 0 0 1 -.1-.3l2.1-3.6a.22.22 0 1 1 .4.2l-2.1 3.6a.35.35 0 0 0 -.2.1z"/><path d="m57.5 27c-.1 0-.1 0-.2-.1l-1.6-2.3a.19.19 0 0 1 0-.3l1.7-2.2a.37.37 0 0 1 .3-.1l2.7.9c.1 0 .2.1.1.2v2.9a.22.22 0 0 1 -.2.2zm-1.3-2.5 1.4 2 2.4-.7.1-2.4-2.4-.8z"/><circle cx="92.3" cy="23.8" r=".6"/><path d="m20.3 25.2c-.1 0-.1 0-.2-.1l-3.1-2.7a.21.21 0 1 1 .3-.3l3.1 2.8a.19.19 0 0 1 0 .3z"/><path d="m42.2 32.4-6.4-2.2a.1.1 0 0 1 -.1-.1v-.2l2.3-6.2a.19.19 0 0 1 .3-.1l6.3 2.2a.1.1 0 0 1 .1.1v.2l-2.3 6.2a.35.35 0 0 1 -.2.1zm-6.1-2.6 5.9 2.1 2.1-5.8-5.9-2.1z"/><circle cx="6.3" cy="26.2" r=".6"/><path d="m289.1.6c-.1 0-.1 0-.2-.1a.19.19 0 0 1 0-.3l3.1-2.8a.19.19 0 0 1 .3 0 .19.19 0 0 1 0 .3l-3.1 2.8c0 .1 0 .1-.1.1z"/><path d="m267.7.4c-.1 0-.2 0-.2-.1s-1.2-2-3-1.6l-.3.1c-1.9.5-3.6.9-5-.7a.19.19 0 0 1 0-.3.19.19 0 0 1 .3 0c1.3 1.4 2.7 1 4.6.5l.3-.1c2.1-.6 3.5 1.7 3.6 1.8s0 .2-.1.3-.2.1-.2.1z"/><path d="m224.9.5a3.14 3.14 0 0 1 -3.2-3.1 3.14 3.14 0 0 1 3.2-3.1 3.14 3.14 0 0 1 3.2 3.1 3.14 3.14 0 0 1 -3.2 3.1zm0-5.8a2.78 2.78 0 0 0 -2.8 2.7 2.71 2.71 0 0 0 2.8 2.7 2.78 2.78 0 0 0 2.8-2.7 2.78 2.78 0 0 0 -2.8-2.7z"/><path d="m181.1 19.4a.22.22 0 0 1 -.2-.2v-4.1a.2.2 0 1 1 .4 0v4.1a.22.22 0 0 1 -.2.2z"/><path d="m168.2 14.2-6.4-2.2a.19.19 0 0 1 -.1-.3l2.3-6.2a.19.19 0 0 1 .3-.1l6.3 2.2a.19.19 0 0 1 .1.3l-2.3 6.2c0 .1-.1.1-.2.1zm-6-2.5 5.9 2.1 2.1-5.8-5.9-2.1z"/><path d="m204.1 14.3h-.1a.37.37 0 0 1 -.1-.3c.1-.1 1.4-2.3 3.6-1.8l.3.1c1.9.5 3.3.9 4.6-.5a.21.21 0 1 1 .3.3c-1.4 1.6-3.1 1.2-5 .7l-.3-.1c-1.8-.5-3 1.5-3 1.6z"/><circle cx="194.8" cy="9.1" r="1.3"/><circle cx="224.9" cy="15.7" r=".9"/><path d="m246.8 14.5a3.1 3.1 0 1 1 3.2-3.1 3.14 3.14 0 0 1 -3.2 3.1zm0-5.9a2.78 2.78 0 0 0 -2.8 2.7 2.71 2.71 0 0 0 2.8 2.7 2.78 2.78 0 0 0 2.8-2.7 2.71 2.71 0 0 0 -2.8-2.7z"/><path d="m267.5 13.7c-.1 0-.1 0-.2-.1l-3.8-3.3a.21.21 0 1 1 .3-.3l3.8 3.3a.19.19 0 0 1 0 .3z"/><path d="m300.5 15a.22.22 0 0 1 -.2-.2l-1.3-3.9a.37.37 0 0 1 .1-.3.37.37 0 0 1 .3.1l1.3 3.9c0 .3 0 .4-.2.4z"/><ellipse cx="283.5" cy="13.3" rx="1.6" ry="1.5"/><circle cx="237.6" cy="8.4" r=".6"/><path d="m295.3 26.7c-.1 0-.1 0-.2-.1l-3.8-3.3a.21.21 0 0 1 .3-.3l3.8 3.3a.19.19 0 0 1 0 .3.1.1 0 0 1 -.1.1z"/><path d="m259.4 29.7h-.1a.37.37 0 0 1 -.1-.3l2.1-3.6a.22.22 0 0 1 .4.2l-2.1 3.6a.35.35 0 0 1 -.2.1z"/><path d="m242.3 27c-.1 0-.1 0-.2-.1l-1.6-2.3a.19.19 0 0 1 0-.3l1.7-2.2a.37.37 0 0 1 .3-.1l2.7.9c.1 0 .2.1.1.2l-.1 2.8a.22.22 0 0 1 -.2.2zm-1.4-2.5 1.4 2 2.4-.7.1-2.4-2.4-.8z"/><circle cx="277" cy="23.8" r=".6"/><path d="m205.1 25.2c-.1 0-.1 0-.2-.1l-3.1-2.8a.21.21 0 1 1 .3-.3l3.1 2.8a.19.19 0 0 1 0 .3.1.1 0 0 1 -.1.1z"/><path d="m226.9 32.4-6.4-2.2a.1.1 0 0 1 -.1-.1v-.2l2.3-6.2a.19.19 0 0 1 .3-.1l6.3 2.2a.1.1 0 0 1 .1.1v.2l-2.3 6.2a.35.35 0 0 1 -.2.1zm-6-2.6 5.9 2.1 2.1-5.8-5.9-2.1z"/><path d="m156.6 25.9c-.1 0-.1 0-.2-.1a.19.19 0 0 1 0-.3c1.4-1.6 3.1-1.2 5-.7l.3.1c1.8.5 3-1.5 3-1.6a.22.22 0 1 1 .4.2s-1.4 2.3-3.6 1.8l-.3-.1c-1.9-.5-3.3-.9-4.6.5.1.2.1.2 0 .2z"/><circle cx="191.1" cy="26.2" r=".6"/><circle cx="154.6" cy="13.4" r=".9"/></g><path d="m0 0h300v250h-300z" fill="#00aeef"/><g clip-path="url(#c)" fill="#009eed"><path d="m95.1 7.9a5.3 5.3 0 1 0 -10.6 0 5.3 5.3 0 1 0 10.6 0zm-9.9 0a4.6 4.6 0 1 1 4.6 4.7 4.67 4.67 0 0 1 -4.6-4.7z"/><path d="m34.1 91a3.2 3.2 0 1 0 -3.2 3.3 3.24 3.24 0 0 0 3.2-3.3zm-5.6 0a2.4 2.4 0 1 1 2.4 2.5 2.46 2.46 0 0 1 -2.4-2.5z"/><path d="m8-5.4a.37.37 0 0 0 -.1-.3.45.45 0 0 0 -.5 0l-5.7 6.4a.45.45 0 0 0 0 .5.45.45 0 0 0 .5 0l5.6-6.4z"/><path d="m13 55.5c0-.1-.1-.3-.2-.3l-6.1-3.6a.44.44 0 0 0 -.5.1.44.44 0 0 0 .1.5l6.1 3.6a.44.44 0 0 0 .5-.1.31.31 0 0 0 .1-.2z"/><path d="m118.9 5a.37.37 0 0 0 -.1-.3l-4.7-5.3a.28.28 0 0 0 -.5 0 .28.28 0 0 0 0 .5l4.7 5.3a.28.28 0 0 0 .5 0c.1 0 .1-.1.1-.2z"/><path d="m89.1 95.4a.37.37 0 0 0 -.1-.3.45.45 0 0 0 -.5 0l-4.7 5.3a.35.35 0 0 0 .5.5l4.7-5.3c.1-.1.1-.1.1-.2z"/><path d="m8.2 81.2c0-.1-.1-.3-.2-.3l-4.3-2c-.1-.1-.3 0-.4.1l-3.2 3.5c-.1.1-.1.2-.1.4l2.3 4.2a.52.52 0 0 0 .4.2l4.6-.9a.32.32 0 0 0 .3-.3zm-4.5-1.6 3.8 1.8-.5 4.2-4.1.8-2-3.7z"/><path d="m63.9 43.9a.37.37 0 0 0 -.1-.3l-3.3-3.4a.6.6 0 0 0 -.4-.1l-4.2 2.2a.52.52 0 0 0 -.2.4l.7 4.8a.32.32 0 0 0 .3.3l4.6.8a.52.52 0 0 0 .4-.2l2.1-4.3a.31.31 0 0 0 .1-.2zm-3.8-3 2.9 3-1.9 3.8-4.1-.7-.7-4.2z"/><path d="m59.7-1.4v-.1a.55.55 0 0 0 -.5-.3c-.4.1-4 1.2-4.7 2.9a1.48 1.48 0 0 0 0 1.3 8.54 8.54 0 0 0 1.8 2.3c2 2 3.3 3.5 2 5.2a16.18 16.18 0 0 1 -3.8 3.2c-1.4 1-2.7 1.8-3 3a.41.41 0 0 0 .8.2c.2-.9 1.3-1.7 2.7-2.6a17.11 17.11 0 0 0 3.9-3.3c1.8-2.3-.3-4.5-2-6.2a13 13 0 0 1 -1.7-2 .64.64 0 0 1 0-.6c.5-1.2 3.2-2.2 4.2-2.5.2-.2.3-.3.3-.5z"/><path d="m61.1 90.7c0-.1-.1-.3-.2-.3-.8-.5-1.2-1.8-1.6-3.4a17.66 17.66 0 0 0 -1.9-4.9c-1.6-2.5-4.3-1-6.4.1a6.46 6.46 0 0 1 -2.4 1 .73.73 0 0 1 -.6-.2c-.9-.9-1.1-3.8-1.1-4.9a.4.4 0 0 0 -.8 0c0 .4 0 4.2 1.3 5.5a1.29 1.29 0 0 0 1.2.4 9.59 9.59 0 0 0 2.7-1.1c2.4-1.3 4.3-2.1 5.4-.4a14.65 14.65 0 0 1 1.8 4.6c.5 1.7.9 3.2 1.9 3.8a.44.44 0 0 0 .5-.1c.2.1.2 0 .2-.1z"/><path d="m118.4 41.4c0-.1 0-.1-.1-.2s-.3-.2-.5-.1c0 0-3.9 2.4-3 6l.1.4c.8 3.2 1.5 5.6-.9 7.8a.35.35 0 0 0 .5.5c2.7-2.5 2-5.3 1.1-8.6l-.1-.4c-.8-3.1 2.6-5.2 2.7-5.2s.2 0 .2-.2z"/><circle cx="29.9" cy="6.9" r="1"/><circle cx="3.1" cy="25.5" r="1"/><circle cx="68.4" cy="71.9" r="1"/><circle cx="111.8" cy="23.4" r="1"/><ellipse cx="114.3" cy="82.9" rx="1.5" ry="1.6"/><ellipse cx="30.9" cy="48.5" rx="1.5" ry="1.6"/><ellipse cx="86.4" cy="39.9" rx="1.5" ry="1.6"/><path d="m95.4 71.9a.35.35 0 0 0 -.4-.4l-10.1 1.6a.32.32 0 0 0 -.3.3.6.6 0 0 0 .1.4l7.6 8.4c.1.1.2.1.4.1s.2-.1.3-.3zm-9.8 1.9 8.9-1.4-2.2 8.8z"/><path d="m118.7 114.1a5.3 5.3 0 1 0 -5.3 5.5 5.51 5.51 0 0 0 5.3-5.5zm-9.9 0a4.6 4.6 0 1 1 4.6 4.7 4.61 4.61 0 0 1 -4.6-4.7z"/><path d="m34.4 156.1a5.3 5.3 0 1 0 -5.3 5.5 5.44 5.44 0 0 0 5.3-5.5zm-9.9 0a4.6 4.6 0 1 1 4.6 4.7 4.81 4.81 0 0 1 -4.6-4.7z"/><path d="m91.2 239.1a3.2 3.2 0 1 0 -3.2 3.3 3.24 3.24 0 0 0 3.2-3.3zm-5.6 0a2.4 2.4 0 1 1 2.4 2.5 2.46 2.46 0 0 1 -2.4-2.5z"/><path d="m117.3 149.1a.37.37 0 0 0 -.1-.3l-5.6-6.4a.35.35 0 0 0 -.5.5l5.6 6.4a.28.28 0 0 0 .5 0c.1 0 .1-.1.1-.2z"/><path d="m112.7 200c0-.1 0-.1-.1-.2s-.3-.2-.5-.1l-6.1 3.6c-.2.1-.2.3-.1.5s.3.2.5.1l6.1-3.6c.1-.1.2-.2.2-.3z"/><path d="m5.4 147.8a.37.37 0 0 0 -.1-.3.45.45 0 0 0 -.5 0l-4.7 5.3a.45.45 0 0 0 0 .5.45.45 0 0 0 .5 0l4.7-5.3c.1 0 .1-.1.1-.2z"/><path d="m35.3 248.8a.37.37 0 0 0 -.1-.3l-4.7-5.3a.28.28 0 0 0 -.5 0c-.1.2-.2.4 0 .5l4.7 5.3a.28.28 0 0 0 .5 0 .35.35 0 0 0 .1-.2z"/><path d="m118.9 230.8a.37.37 0 0 0 -.1-.3l-3.2-3.5c-.1-.1-.3-.2-.4-.1l-4.3 2a.52.52 0 0 0 -.2.4l.6 4.8a.27.27 0 0 0 .3.3l4.6.9c.2 0 .3 0 .4-.2l2.3-4.2zm-3.7-3 2.8 3.1-2 3.7-4.1-.8-.5-4.2z"/><path d="m63.3 190.8c0-.1-.1-.3-.2-.3l-4.2-2.2c-.1-.1-.3 0-.4.1l-3.3 3.4a.6.6 0 0 0 -.1.4l2.1 4.3a.52.52 0 0 0 .4.2l4.6-.8a.32.32 0 0 0 .3-.3zm-4.5-1.7 3.7 1.9-.7 4.2-4.1.7-1.9-3.8z"/><path d="m67.4 164.3c-.3-1.3-1.5-2.1-3-3.1a14.09 14.09 0 0 1 -3.8-3.2c-1.3-1.7 0-3.2 2-5.2a8.54 8.54 0 0 0 1.8-2.3 1.48 1.48 0 0 0 0-1.3c-.8-1.7-4.3-2.8-4.7-2.9-.2-.1-.4.1-.5.3s.1.4.3.5c1 .3 3.7 1.3 4.3 2.5a.64.64 0 0 1 0 .6 5.83 5.83 0 0 1 -1.7 2c-1.7 1.7-3.8 3.9-2 6.2a14.59 14.59 0 0 0 3.9 3.3c1.3.9 2.4 1.6 2.7 2.6 0 .2.3.3.5.3s.2-.1.2-.3z"/><path d="m72.7 226.5v-.2a.4.4 0 0 0 -.8 0c0 1.1-.1 4-1.1 4.9a.73.73 0 0 1 -.6.2 8.79 8.79 0 0 1 -2.4-1c-2.1-1.2-4.8-2.6-6.4-.1a17.11 17.11 0 0 0 -1.9 4.8c-.4 1.5-.8 2.9-1.6 3.4-.2.1-.2.3-.1.5s.3.2.5.1c1.1-.6 1.5-2.1 1.9-3.8a16.29 16.29 0 0 1 1.8-4.6c1.2-1.8 3-1 5.4.4a9.59 9.59 0 0 0 2.7 1.1 1.47 1.47 0 0 0 1.2-.4c1.3-1.1 1.4-4.4 1.4-5.3z"/><path d="m17.6 110.6a.52.52 0 0 0 -.2-.4l-10.5-3.9h-.3a.22.22 0 0 0 -.2.2l-3.8 10.8a.37.37 0 0 0 .2.5l10.5 3.9h.3a.22.22 0 0 0 .2-.2l3.8-10.8zm-10.6-3.3 9.8 3.6-3.5 10-9.8-3.6z"/><path d="m56.6 110a.37.37 0 0 0 -.1-.3c-.2-.2-5.3-5.7-11.6-5.1-.2 0-.4.2-.3.4s.2.4.4.3c6-.6 11 4.8 11 4.9a.28.28 0 0 0 .5 0 .35.35 0 0 0 .1-.2z"/><path d="m5 203.8a.37.37 0 0 0 -.1-.3c-2.3-2.1-1.7-4.6-.9-7.8l.1-.4c.9-3.7-2.8-6-3-6a.44.44 0 0 0 -.5.1.44.44 0 0 0 .1.5s3.5 2.1 2.7 5.2l-.1.4c-.9 3.3-1.6 6.1 1.1 8.6a.45.45 0 0 0 .5 0c0-.1.1-.2.1-.3z"/><circle cx="89" cy="155" r="1"/><circle cx="115.8" cy="173.7" r="1"/><circle cx="108.4" cy="98.3" r="1"/><circle cx="46.1" cy="127.3" r="1"/><circle cx="50.5" cy="220" r="1"/><circle cx="7.1" cy="171.6" r="1"/><ellipse cx="78.3" cy="110" rx="1.5" ry="1.6"/><ellipse cx="4.6" cy="231" rx="1.5" ry="1.6"/><ellipse cx="88" cy="196.7" rx="1.5" ry="1.6"/><ellipse cx="32.6" cy="188" rx="1.5" ry="1.6"/><path d="m34.4 221.6v-.1c0-.1-.2-.2-.3-.3l-10.1-1.6c-.1 0-.3 0-.3.1s-.1.2-.1.4l2.5 10q0 .15.3.3a.6.6 0 0 0 .4-.1l7.6-8.4zm-10-1.1 8.9 1.4-6.6 7.4z"/><path d="m82.1 133.3a.37.37 0 0 0 -.1-.3l-6.4-7.1c-.1-.1-.2-.1-.4-.1s-.2.1-.3.3l-2.1 8.4a.6.6 0 0 0 .1.4.37.37 0 0 0 .3.1l8.5-1.3a.32.32 0 0 0 .3-.3.1.1 0 0 0 .1-.1zm-6.6-6.3 5.4 6-7.2 1.1z"/><path d="m146.5 224.9a5.3 5.3 0 1 0 -5.3 5.5 5.44 5.44 0 0 0 5.3-5.5zm-10 0a4.6 4.6 0 1 1 4.6 4.7 4.67 4.67 0 0 1 -4.6-4.7z"/><path d="m226.6 182.9a5.3 5.3 0 1 0 -5.3 5.5 5.38 5.38 0 0 0 5.3-5.5zm-9.9 0a4.6 4.6 0 1 1 4.6 4.7 4.67 4.67 0 0 1 -4.6-4.7z"/><path d="m165.6 99.9a3.2 3.2 0 1 0 -3.2 3.3 3.24 3.24 0 0 0 3.2-3.3zm-5.6 0a2.4 2.4 0 1 1 2.4 2.5 2.46 2.46 0 0 1 -2.4-2.5z"/><path d="m139.5 196.3a.37.37 0 0 0 -.1-.3l-5.6-6.4a.35.35 0 0 0 -.5.5l5.6 6.4a.28.28 0 0 0 .5 0 .35.35 0 0 0 .1-.2z"/><path d="m144.5 135.4c0-.1 0-.1-.1-.2s-.3-.2-.5-.1l-6.1 3.6c-.2.1-.2.3-.1.5s.3.2.5.1l6.1-3.6c.2 0 .2-.1.2-.3z"/><path d="m250.4 185.9a.37.37 0 0 0 -.1-.3.45.45 0 0 0 -.5 0l-4.7 5.3a.35.35 0 0 0 .5.5l4.7-5.3c.1 0 .1-.1.1-.2z"/><path d="m220.6 95.5a.37.37 0 0 0 -.1-.3l-4.7-5.3a.35.35 0 0 0 -.5.5l4.7 5.3a.28.28 0 0 0 .5 0 .35.35 0 0 0 .1-.2z"/><path d="m139.7 109.7-.6-4.8a.27.27 0 0 0 -.3-.3l-4.6-.9c-.2 0-.3 0-.4.2l-2.3 4.2c-.1.1-.1.3.1.5l3.2 3.5c.1.1.3.2.4.1l4.3-2c.1-.3.2-.4.2-.5zm-1.3-4.5.5 4.2-3.8 1.8-2.8-3.1 2-3.7z"/><path d="m195.4 147v-.2l-2.1-4.3a.52.52 0 0 0 -.4-.2l-4.6.8a.32.32 0 0 0 -.3.3l-.7 4.8a.52.52 0 0 0 .2.4l4.2 2.2c.1.1.3 0 .4-.1l3.3-3.4zm-2.7-3.9 1.9 3.8-2.9 3-3.7-1.9.7-4.2z"/><path d="m191.2 192.3c0-.2-.1-.3-.3-.4-1-.3-3.7-1.3-4.3-2.5a.64.64 0 0 1 0-.6 5.83 5.83 0 0 1 1.7-2c1.7-1.7 3.8-3.9 2-6.2a14.59 14.59 0 0 0 -3.9-3.3c-1.3-.9-2.4-1.6-2.7-2.6 0-.2-.3-.3-.5-.3s-.3.3-.3.5c.3 1.2 1.5 2.1 3 3a14.09 14.09 0 0 1 3.8 3.2c1.3 1.7 0 3.2-2 5.2a8.54 8.54 0 0 0 -1.8 2.3 1.48 1.48 0 0 0 0 1.3c.8 1.7 4.3 2.8 4.7 2.9.2.1.4-.1.5-.3a.31.31 0 0 0 .1-.2z"/><path d="m192.6 100.2c0-.1 0-.1-.1-.2s-.3-.2-.5-.1c-1.1.6-1.5 2.1-1.9 3.8a16.29 16.29 0 0 1 -1.8 4.6c-1.2 1.8-3 1-5.4-.4a9.59 9.59 0 0 0 -2.7-1.1 1.47 1.47 0 0 0 -1.2.4c-1.3 1.2-1.3 5.1-1.3 5.5a.4.4 0 0 0 .8 0c0-1.1.1-4 1.1-4.9a.73.73 0 0 1 .6-.2 8.79 8.79 0 0 1 2.4 1c2.1 1.2 4.8 2.6 6.4.1a17.11 17.11 0 0 0 1.9-4.8c.4-1.5.8-2.9 1.6-3.4 0-.1.1-.2.1-.3z"/><path d="m247.8 221.5a.52.52 0 0 0 -.2-.4l-10.5-3.9a.37.37 0 0 0 -.5.2l-3.8 10.8a.37.37 0 0 0 .2.5l10.5 3.9a.37.37 0 0 0 .5-.2l3.8-10.8zm-10.7-3.4 9.8 3.6-3.5 10-9.8-3.6z"/><path d="m205.9 234a.43.43 0 0 0 -.4-.4c-6 .6-11-4.8-11-4.9a.35.35 0 0 0 -.5.5c.2.2 5.3 5.7 11.6 5.1.2.1.3-.1.3-.3z"/><path d="m249.9 149.4c0-.1-.1-.3-.2-.3s-3.5-2.1-2.7-5.2l.1-.4c.9-3.3 1.6-6.1-1.1-8.6a.35.35 0 0 0 -.5.5c2.3 2.1 1.7 4.6.9 7.8l-.1.4c-.9 3.7 2.8 6 3 6a.44.44 0 0 0 .5-.1c.1.1.1 0 .1-.1z"/><path d="m223.6 234.6c0-.1 0-.1-.1-.2s-.3-.2-.5-.1c0 0-4 2.4-3 6l.1.4c.8 3.2 1.5 5.6-.9 7.8a.35.35 0 0 0 .5.5c2.7-2.5 2-5.3 1.1-8.6l-.1-.4c-.8-3.1 2.6-5.2 2.7-5.2s.2-.1.2-.2z"/><circle cx="161.4" cy="184" r="1"/><circle cx="134.6" cy="165.3" r="1"/><circle cx="146.1" cy="240.7" r="1"/><circle cx="204.3" cy="211.7" r="1"/><circle cx="199.9" cy="119" r="1"/><circle cx="243.3" cy="167.4" r="1"/><circle cx="253.7" cy="241.7" r="1"/><ellipse cx="172.1" cy="229" rx="1.5" ry="1.6"/><ellipse cx="245.8" cy="108" rx="1.5" ry="1.6"/><ellipse cx="162.4" cy="142.3" rx="1.5" ry="1.6"/><ellipse cx="217.9" cy="151" rx="1.5" ry="1.6"/><path d="m226.9 119-2.6-10.1q0-.15-.3-.3c-.2-.1-.3 0-.4.1l-7.6 8.4a.6.6 0 0 0 -.1.4c0 .1.2.2.3.3l10.1 1.6c.1 0 .3 0 .3-.1q.3-.15.3-.3zm-3.2-9.3 2.2 8.8-8.9-1.4z"/><path d="m177.6 204.4a.35.35 0 0 0 -.4-.4l-8.5 1.3a.32.32 0 0 0 -.3.3.6.6 0 0 0 .1.4l6.4 7.1c.1.1.2.1.4.1s.2-.1.3-.3zm-8.1 1.6 7.2-1.1-1.8 7.2z"/><path d="m250.2 76.8a5.3 5.3 0 1 0 -5.3 5.5 5.44 5.44 0 0 0 5.3-5.5zm-9.9 0a4.6 4.6 0 1 1 4.6 4.7 4.61 4.61 0 0 1 -4.6-4.7z"/><path d="m165.9 34.8a5.3 5.3 0 1 0 -5.3 5.5 5.44 5.44 0 0 0 5.3-5.5zm-9.9 0a4.6 4.6 0 1 1 4.6 4.7 4.67 4.67 0 0 1 -4.6-4.7z"/><path d="m248.8 41.8a.37.37 0 0 0 -.1-.3.45.45 0 0 0 -.5 0l-5.6 6.4a.35.35 0 0 0 .5.5l5.6-6.4c.1 0 .1-.1.1-.2z"/><path d="m136.9 43.1a.37.37 0 0 0 -.1-.3l-4.7-5.3a.35.35 0 0 0 -.5.5l4.7 5.3a.28.28 0 0 0 .5 0c.1 0 .1-.1.1-.2z"/><path d="m194.8.1-.8-4.8a.32.32 0 0 0 -.3-.3l-4.6-.8a.52.52 0 0 0 -.4.2l-2.1 4.3c-.1.1 0 .3.1.4l3.3 3.4a.6.6 0 0 0 .4.1l4.2-2.2c.1 0 .2-.2.2-.3zm-1.5-4.4.7 4.2-3.7 1.9-2.9-3 1.9-3.8z"/><path d="m198.9 26.6c0-.2-.1-.3-.3-.4a.55.55 0 0 0 -.5.3c-.2.9-1.3 1.7-2.7 2.6a17.11 17.11 0 0 0 -3.9 3.3c-1.8 2.3.3 4.5 2 6.2a13 13 0 0 1 1.7 2 .64.64 0 0 1 0 .6c-.5 1.2-3.2 2.2-4.2 2.5a.41.41 0 1 0 .2.8c.4-.1 4-1.2 4.7-2.9a1.48 1.48 0 0 0 0-1.3 8.54 8.54 0 0 0 -1.8-2.3c-2-2-3.3-3.5-2-5.2a16.18 16.18 0 0 1 3.8-3.2c1.4-.9 2.7-1.7 3-3z"/><path d="m149.1 80.3v-.1l-3.8-10.8a.37.37 0 0 0 -.5-.2l-10.4 3.8a.37.37 0 0 0 -.2.5l3.8 10.8a.37.37 0 0 0 .5.2l10.5-3.9c.1 0 .1-.2.1-.3zm-4.3-10.3 3.5 10-9.8 3.6-3.5-10z"/><path d="m188.1 80.9a.37.37 0 0 0 -.1-.3.45.45 0 0 0 -.5 0c0 .1-5 5.5-11 4.9-.2 0-.4.1-.4.3s.1.4.3.4c6.4.6 11.4-4.9 11.6-5.1a.35.35 0 0 0 .1-.2z"/><path d="m136.5-12.9a.37.37 0 0 0 -.1-.3.28.28 0 0 0 -.5 0c-2.7 2.5-2 5.3-1.1 8.6l.1.4c.8 3.1-2.6 5.2-2.7 5.2s-.2.3-.1.5.3.2.5.1c0 0 3.9-2.4 3-6l-.1-.4c-.8-3.2-1.5-5.6.9-7.8 0-.1.1-.2.1-.3z"/><circle cx="220.5" cy="35.9" r="1"/><circle cx="247.3" cy="17.2" r="1"/><circle cx="228.5" cy="65.7" r="1"/><circle cx="177.6" cy="63.6" r="1"/><circle cx="138.6" cy="19.3" r="1"/><ellipse cx="209.8" cy="80.9" rx="1.5" ry="1.6"/><path d="m282.3 2.4a.43.43 0 0 0 -.4-.4l-7-.1a.43.43 0 0 0 -.4.4.43.43 0 0 0 .4.4l7 .1a.43.43 0 0 0 .4-.4z"/><path d="m273.6 41.4c0-.1 0-.1-.1-.2s-.3-.2-.5-.1-3.9 2.4-3 6l.1.4c.8 3.2 1.5 5.6-.9 7.8a.35.35 0 0 0 .5.5c2.7-2.5 2-5.3 1.1-8.6l-.1-.4c-.8-3.1 2.6-5.2 2.7-5.2s.2 0 .2-.2z"/><ellipse cx="264.8" cy="25.7" rx="2.2" ry="2.3"/><ellipse cx="276" cy="76.8" rx="1.5" ry="1.6"/><path d="m273.9 114.1a5.3 5.3 0 1 0 -5.3 5.5 5.51 5.51 0 0 0 5.3-5.5zm-9.9 0a4.6 4.6 0 1 1 4.6 4.7 4.67 4.67 0 0 1 -4.6-4.7z"/><path d="m272.5 149.1a.37.37 0 0 0 -.1-.3l-5.6-6.4a.35.35 0 0 0 -.5.5l5.6 6.4a.28.28 0 0 0 .5 0c.1 0 .1-.1.1-.2z"/><path d="m274.9 205.2c0-.2-.1-.3-.3-.4l-6.7-2.3a.38.38 0 0 0 -.3.7l6.7 2.3a.37.37 0 0 0 .5-.2z"/><path d="m274.1 230.8a.37.37 0 0 0 -.1-.3l-3.2-3.5c-.1-.1-.3-.2-.4-.1l-4.3 2a.52.52 0 0 0 -.2.4l.6 4.8a.27.27 0 0 0 .3.3l4.6.9c.2 0 .3 0 .4-.2l2.3-4.2zm-3.7-3 2.8 3.1-2 3.7-4.1-.8-.5-4.2z"/><ellipse cx="271.9" cy="176.3" rx="2.6" ry="2.7"/><circle cx="263.6" cy="98.3" r="1"/><path d="m295.1 233.8a5.3 5.3 0 1 0 -5.3 5.5 5.38 5.38 0 0 0 5.3-5.5zm-9.9 0a4.6 4.6 0 1 1 4.6 4.7 4.67 4.67 0 0 1 -4.6-4.7z"/><path d="m294.7 196.3a.37.37 0 0 0 -.1-.3l-5.6-6.4a.35.35 0 0 0 -.5.5l5.6 6.4a.28.28 0 0 0 .5 0 .35.35 0 0 0 .1-.2z"/><path d="m299.7 135.4c0-.1 0-.1-.1-.2s-.3-.2-.5-.1l-6.1 3.6c-.2.1-.2.3-.1.5s.3.2.5.1l6.1-3.6c.2 0 .2-.1.2-.3z"/><path d="m295.2 106.3c0-.1-.1-.2-.2-.3l-3.9-2.7a.3.3 0 0 0 -.4 0l-3.7 3c-.1.1-.2.3-.1.4l1.6 4.5c.1.2.2.3.4.3l4.7-.2a.27.27 0 0 0 .3-.3l1.3-4.6zm-4.3-2.2 3.4 2.4-1.1 4.1-4.1.2-1.4-4z"/><circle cx="289.8" cy="165.3" r="1"/><path d="m292.1 43.1a.37.37 0 0 0 -.1-.3l-4.7-5.3a.35.35 0 0 0 -.5.5l4.7 5.3a.28.28 0 0 0 .5 0c.1 0 .1-.1.1-.2z"/><path d="m304.4 80.3v-.1l-3.8-10.8a.22.22 0 0 0 -.2-.2h-.3l-10.5 3.8a.37.37 0 0 0 -.2.5l3.8 10.8a.22.22 0 0 0 .2.2h.3l10.5-3.9c.1 0 .2-.2.2-.3zm-4.4-10.3 3.5 10-9.8 3.6-3.5-10z"/><circle cx="293.8" cy="19.3" r="1"/><ellipse cx="164" cy="2.9" rx="1.5" ry="1.6"/><path d="m213.6 57.6v-.1c0-.1-.2-.2-.3-.3l-8.5-1.3c-.1 0-.3 0-.3.1s-.1.2-.1.4l2.1 8.4q0 .15.3.3c.2.1.3 0 .4-.1l6.4-7.1zm-8.4-.9 7.2 1.1-5.4 6z"/></g><path d="m0 164.5h300v85.5h-300z" fill="#0566c6"/><g clip-path="url(#d)" fill="#005499"><path d="m80.4 97.5a5.61 5.61 0 0 0 -5.6-5.7 5.68 5.68 0 0 0 -5.6 5.7 5.6 5.6 0 1 0 11.2 0zm-10.4 0a4.82 4.82 0 0 1 4.8-4.9 4.89 4.89 0 0 1 4.8 4.9 4.82 4.82 0 0 1 -4.8 4.9 4.89 4.89 0 0 1 -4.8-4.9z"/><path d="m16.5 184.4a3.3 3.3 0 1 0 -3.3 3.4 3.29 3.29 0 0 0 3.3-3.4zm-5.9 0a2.58 2.58 0 0 1 2.6-2.6 2.65 2.65 0 0 1 2.6 2.6 2.58 2.58 0 0 1 -2.6 2.6 2.52 2.52 0 0 1 -2.6-2.6z"/><path d="m105.3 94.4a.37.37 0 0 0 -.1-.3l-4.9-5.6c-.1-.2-.4-.2-.6 0s-.2.4 0 .6l4.9 5.6c.1.2.4.2.6 0 .1 0 .1-.1.1-.3z"/><path d="m74.1 189a.37.37 0 0 0 -.1-.3.64.64 0 0 0 -.6 0l-4.9 5.6a.42.42 0 1 0 .6.6l4.9-5.6c0-.1.1-.2.1-.3z"/><path d="m47.7 135.1a.37.37 0 0 0 -.1-.3l-3.5-3.6a.44.44 0 0 0 -.5-.1l-4.4 2.3c-.2.1-.2.2-.2.4l.8 5a.32.32 0 0 0 .3.3l4.9.9a.52.52 0 0 0 .4-.2l2.2-4.5c.1 0 .1-.1.1-.2zm-3.9-3 3.1 3.1-2 4-4.3-.7-.7-4.4z"/><path d="m43.3 87.7v-.1a.55.55 0 0 0 -.5-.3c-.4.1-4.1 1.3-4.9 3a1.48 1.48 0 0 0 0 1.3 11.56 11.56 0 0 0 1.9 2.4c2.1 2.1 3.4 3.7 2.1 5.4a17.11 17.11 0 0 1 -3.9 3.3c-1.5 1-2.8 1.9-3.1 3.2a.55.55 0 0 0 .3.5c.2.1.4-.1.5-.3.2-1 1.4-1.8 2.8-2.7a16.62 16.62 0 0 0 4.1-3.5c1.9-2.4-.3-4.7-2.1-6.5a10.1 10.1 0 0 1 -1.8-2.1.85.85 0 0 1 0-.7c.5-1.2 3.4-2.3 4.4-2.6.1.1.2-.1.2-.3z"/><path d="m44.8 184.2c0-.1-.1-.3-.2-.3-.8-.5-1.2-1.9-1.7-3.5a19.22 19.22 0 0 0 -2-5.1c-1.7-2.6-4.5-1.1-6.7.1a11.91 11.91 0 0 1 -2.5 1.1.73.73 0 0 1 -.6-.2c-1-.9-1.1-4-1.1-5.1a.4.4 0 1 0 -.8 0c0 .4 0 4.4 1.4 5.7a1.47 1.47 0 0 0 1.2.4 8.12 8.12 0 0 0 2.8-1.2c2.6-1.4 4.5-2.2 5.7-.4a16 16 0 0 1 1.9 4.8c.5 1.8.9 3.3 2 4a.44.44 0 0 0 .5-.1.31.31 0 0 0 .1-.2z"/><path d="m102.5 57.2v-.1l-3.9-11.3a.37.37 0 0 0 -.5-.2l-11 4a.37.37 0 0 0 -.2.5l3.9 11.3a.37.37 0 0 0 .5.2l11-4a.52.52 0 0 0 .2-.4zm-4.5-10.8 3.7 10.5-10.2 3.8-3.7-10.5z"/><path d="m58.8 44a.43.43 0 0 0 -.4-.4c-6.7-.6-12 5.1-12.2 5.4a.64.64 0 0 0 0 .6c.2.2.4.1.6 0s5.3-5.7 11.5-5.1a.82.82 0 0 0 .5-.5z"/><path d="m104.8 132.6c0-.1 0-.1-.1-.2s-.4-.3-.5-.1c0 0-4.1 2.5-3.1 6.3l.1.5c.9 3.3 1.5 5.9-.9 8.1-.2.1-.2.4 0 .6s.4.2.6 0c2.8-2.6 2.1-5.5 1.2-9l-.1-.5c-.8-3.2 2.7-5.4 2.8-5.4-.1-.1 0-.2 0-.3z"/><path d="m77.3 43.5a.76.76 0 0 0 -.2-.4s-3.6-2.2-2.8-5.4l.1-.5c.9-3.4 1.7-6.4-1.2-9a.42.42 0 0 0 -.6.6c2.5 2.2 1.8 4.8.9 8.2l-.1.5c-1 3.8 3 6.2 3.2 6.3a.44.44 0 0 0 .5-.1c.2-.1.2-.2.2-.2z"/><circle cx="12.1" cy="96.4" r="1.1"/><circle cx="57.1" cy="67.4" r="1.1"/><circle cx="52.4" cy="164.5" r="1.1"/><circle cx="97.8" cy="113.7" r="1.1"/><circle cx="23.4" cy="49.3" r="1.6"/><circle cx="100.5" cy="176" r="1.6"/><circle cx="13.2" cy="140" r="1.6"/><circle cx="71.2" cy="130.9" r="1.6"/><path d="m80.6 164.5a.37.37 0 0 0 -.1-.3c-.1-.1-.2-.1-.4-.1l-10.6 1.7a.32.32 0 0 0 -.3.3.6.6 0 0 0 .1.4l7.9 8.8c.1.1.2.2.4.1s.2-.1.3-.3l2.7-10.5zm-10.2 1.9 9.3-1.5-2.3 9.2z"/><path d="m29.1 75.1v-.1l-2.2-8.8a.32.32 0 0 0 -.3-.3c-.2 0-.3 0-.4.1l-6.7 7.4a.6.6 0 0 0 -.1.4c0 .1.2.2.3.3l8.9 1.4a.6.6 0 0 0 .4-.1c0-.1.1-.2.1-.3zm-2.9-8 1.9 7.5-7.6-1.2z"/><path d="m105 208.6a5.61 5.61 0 0 0 -5.6-5.7 5.68 5.68 0 0 0 -5.6 5.7 5.6 5.6 0 1 0 11.2 0zm-10.3 0a4.82 4.82 0 0 1 4.8-4.9 4.89 4.89 0 0 1 4.8 4.9 4.8 4.8 0 1 1 -9.6 0z"/><path d="m16.9 252.5a5.61 5.61 0 0 0 -5.6-5.7 5.68 5.68 0 0 0 -5.6 5.7 5.6 5.6 0 1 0 11.2 0zm-10.4 0a4.82 4.82 0 0 1 4.8-4.9 4.89 4.89 0 0 1 4.8 4.9 4.82 4.82 0 0 1 -4.8 4.9 4.89 4.89 0 0 1 -4.8-4.9z"/><path d="m103.6 245.2a.37.37 0 0 0 -.1-.3l-5.9-6.7c-.1-.2-.4-.2-.6 0a.38.38 0 0 0 0 .6l5.9 6.7c.1.2.4.2.6 0 .1 0 .1-.1.1-.3z"/><path d="m51.4 261.2c-.3-1.4-1.6-2.2-3.1-3.3a17.11 17.11 0 0 1 -3.9-3.3c-1.4-1.7 0-3.3 2.1-5.4a8 8 0 0 0 1.9-2.4 1.48 1.48 0 0 0 0-1.3c-.8-1.8-4.5-2.9-4.9-3-.2-.1-.4.1-.5.3s.1.4.3.5c1.1.3 3.9 1.4 4.4 2.6a.85.85 0 0 1 0 .7 10.1 10.1 0 0 1 -1.8 2.1c-1.8 1.8-4 4.1-2.1 6.5a18.65 18.65 0 0 0 4.1 3.5c1.4.9 2.6 1.7 2.8 2.7.1.2.3.4.5.3 0-.2.2-.4.2-.5z"/><path d="m40 204.3a.37.37 0 0 0 -.1-.3c-.2-.2-5.5-6-12.2-5.4a.4.4 0 0 0 0 .8c6.3-.6 11.5 5.1 11.5 5.1.1.2.4.2.6 0 .2 0 .2-.1.2-.2z"/><circle cx="94.3" cy="192.1" r="1.1"/><circle cx="29.1" cy="222.4" r="1.1"/><circle cx="62.8" cy="204.3" r="1.6"/><path d="m66.8 228.7a.37.37 0 0 0 -.1-.3l-6.7-7.4c-.1-.1-.2-.2-.4-.1s-.2.1-.3.3l-2.2 8.8a.6.6 0 0 0 .1.4c.1.1.2.1.4.1l8.9-1.4a.32.32 0 0 0 .3-.3zm-6.9-6.6 5.7 6.3-7.6 1.2z"/><path d="m154.2 193.8a3.3 3.3 0 1 0 -3.3 3.4 3.42 3.42 0 0 0 3.3-3.4zm-5.9 0a2.6 2.6 0 1 1 2.6 2.6 2.58 2.58 0 0 1 -2.6-2.6z"/><path d="m132.1 230.9c0-.1 0-.1-.1-.2s-.3-.3-.5-.1l-6.4 3.8a.38.38 0 0 0 -.1.6c.1.2.3.3.5.1l6.4-3.8a.52.52 0 0 0 .2-.4z"/><path d="m211.7 189.2a.37.37 0 0 0 -.1-.3l-4.9-5.6c-.1-.2-.4-.2-.6 0s-.2.4 0 .6l4.9 5.6c.1.2.4.2.6 0a.37.37 0 0 0 .1-.3z"/><path d="m127.1 204-.6-5.1a.27.27 0 0 0 -.3-.3l-4.8-1c-.2 0-.3 0-.4.2l-2.4 4.4c-.1.2-.1.3.1.5l3.4 3.7a.44.44 0 0 0 .5.1l4.5-2.1c-.1-.1 0-.3 0-.4zm-1.4-4.7.5 4.4-3.9 1.9-3-3.3 2.1-3.9z"/><path d="m185.3 243.1v-.2l-2.2-4.5c-.1-.2-.2-.2-.4-.2l-4.9.8a.32.32 0 0 0 -.3.3l-.8 5a.52.52 0 0 0 .2.4l4.4 2.3c.2.1.3 0 .5-.1l3.5-3.6zm-2.8-4.1 2 4-3.1 3.1-3.9-2 .7-4.4z"/><path d="m182.4 194c0-.1 0-.1-.1-.2s-.4-.3-.5-.1c-1.1.7-1.5 2.2-2 4a15 15 0 0 1 -1.9 4.8c-1.2 1.8-3.1 1-5.7-.4a8.12 8.12 0 0 0 -2.8-1.2 1.29 1.29 0 0 0 -1.2.4c-1.4 1.3-1.4 5.3-1.4 5.7a.4.4 0 0 0 .8 0c0-1.1.1-4.2 1.1-5.1a.73.73 0 0 1 .6-.2 11.91 11.91 0 0 1 2.5 1.1c2.2 1.2 5 2.7 6.7.1a15.45 15.45 0 0 0 2-5.1c.4-1.6.8-3 1.7-3.5.1 0 .2-.1.2-.3z"/><path d="m242.4 245.6a.76.76 0 0 0 -.2-.4s-3.6-2.2-2.8-5.4l.1-.5c.9-3.4 1.7-6.4-1.2-9a.42.42 0 0 0 -.6.6c2.5 2.2 1.8 4.8.9 8.1l-.1.5c-1 3.8 3 6.2 3.1 6.3a.44.44 0 0 0 .5-.1c.3.1.3 0 .3-.1z"/><circle cx="190.1" cy="213.7" r="1.1"/><circle cx="238.1" cy="202.2" r="1.6"/><circle cx="150.8" cy="238.2" r="1.6"/><circle cx="208.9" cy="247.2" r="1.6"/><path d="m218.3 213.7v-.1l-2.7-10.5a.32.32 0 0 0 -.3-.3.6.6 0 0 0 -.4.1l-7.9 8.8a.6.6 0 0 0 -.1.4c0 .1.2.2.3.3l10.6 1.7a.6.6 0 0 0 .4-.1c0-.1.1-.2.1-.3zm-3.3-9.6 2.3 9.2-9.3-1.5z"/><path d="m242.7 169.6a5.61 5.61 0 0 0 -5.6-5.7 5.68 5.68 0 0 0 -5.6 5.7 5.61 5.61 0 0 0 5.6 5.7 5.68 5.68 0 0 0 5.6-5.7zm-10.4 0a4.8 4.8 0 1 1 4.8 4.9 4.82 4.82 0 0 1 -4.8-4.9z"/><path d="m154.5 125.7a5.61 5.61 0 0 0 -5.6-5.7 5.68 5.68 0 0 0 -5.6 5.7 5.61 5.61 0 0 0 5.6 5.7 5.68 5.68 0 0 0 5.6-5.7zm-10.4 0a4.82 4.82 0 0 1 4.8-4.9 4.89 4.89 0 0 1 4.8 4.9 4.82 4.82 0 0 1 -4.8 4.9 4.89 4.89 0 0 1 -4.8-4.9z"/><path d="m213.9 38.7a3.3 3.3 0 1 0 -3.3 3.4 3.29 3.29 0 0 0 3.3-3.4zm-5.9 0a2.58 2.58 0 0 1 2.6-2.6 2.65 2.65 0 0 1 2.6 2.6 2.6 2.6 0 1 1 -5.2 0z"/><path d="m241.2 132.9a.37.37 0 0 0 -.1-.3.64.64 0 0 0 -.6 0l-5.9 6.7a.42.42 0 1 0 .6.6l5.9-6.7a.37.37 0 0 0 .1-.3z"/><path d="m236.4 79.7a.76.76 0 0 0 -.2-.4l-6.4-3.8a.44.44 0 0 0 -.5.1.66.66 0 0 0 .1.6l6.4 3.8a.44.44 0 0 0 .5-.1.31.31 0 0 0 .1-.2z"/><path d="m124.2 134.3a.37.37 0 0 0 -.1-.3l-4.9-5.6c-.1-.2-.4-.2-.6 0s-.2.4 0 .6l4.9 5.6c.1.2.4.2.6 0 0-.1.1-.2.1-.3z"/><path d="m155.4 28.6a.37.37 0 0 0 -.1-.3.64.64 0 0 0 -.6 0l-4.9 5.6a.42.42 0 0 0 .6.6l4.9-5.6a.77.77 0 0 0 .1-.3z"/><path d="m241.4 45.1v-.2l-2.4-4.4a.4.4 0 0 0 -.4-.2l-4.8 1a.32.32 0 0 0 -.3.3l-.6 5a.52.52 0 0 0 .2.4l4.5 2.1c.2.1.3 0 .5-.1l3.4-3.7c-.2 0-.1-.1-.1-.2zm-3-3.9 2.1 3.9-3 3.3-3.9-1.9.5-4.4z"/><path d="m184.7 89.3-.8-5a.32.32 0 0 0 -.3-.3l-4.9-.8a.52.52 0 0 0 -.4.2l-2.2 4.5c-.1.2 0 .3.1.5l3.5 3.6a.44.44 0 0 0 .5.1l4.4-2.3a4.33 4.33 0 0 1 .1-.5zm-1.5-4.6.7 4.4-3.9 2-3.1-3.1 2-4z"/><path d="m189 117c0-.2-.1-.3-.3-.4s-.4.1-.5.3c-.2 1-1.4 1.8-2.8 2.7a16.62 16.62 0 0 0 -4.1 3.5c-1.9 2.4.3 4.7 2.1 6.5a10.1 10.1 0 0 1 1.8 2.1.85.85 0 0 1 0 .7c-.5 1.2-3.4 2.3-4.4 2.6a.41.41 0 1 0 .2.8c.4-.1 4.1-1.3 4.9-3a1.48 1.48 0 0 0 0-1.3 11.56 11.56 0 0 0 -1.9-2.4c-2.1-2.1-3.4-3.7-2.1-5.4a17.11 17.11 0 0 1 3.9-3.3c1.6-1.1 2.9-2 3.2-3.4z"/><path d="m194.6 51.9c0-.9-.1-4.4-1.4-5.6a1.47 1.47 0 0 0 -1.2-.4 8.12 8.12 0 0 0 -2.8 1.2c-2.6 1.4-4.5 2.2-5.7.4a16 16 0 0 1 -1.9-4.8c-.5-1.8-.9-3.3-2-4a.44.44 0 0 0 -.5.1.66.66 0 0 0 .1.6c.8.5 1.2 1.9 1.7 3.5a19.22 19.22 0 0 0 2 5.1c1.7 2.6 4.5 1.1 6.7-.1a11.91 11.91 0 0 1 2.5-1.1.73.73 0 0 1 .6.2c1 .9 1.1 4 1.1 5.1a.4.4 0 1 0 .8 0z"/><path d="m136.9 173.2v-.1l-3.9-11.3a.37.37 0 0 0 -.5-.2l-11 4a.37.37 0 0 0 -.2.5l3.9 11.3a.37.37 0 0 0 .5.2l11-4a.52.52 0 0 0 .2-.4zm-4.5-10.7 3.6 10.5-10.2 3.8-3.7-10.5z"/><path d="m177.7 173.9a.37.37 0 0 0 -.1-.3c-.2-.2-.4-.1-.6 0s-5.3 5.7-11.5 5.1a.4.4 0 0 0 0 .8c6.7.6 12-5.1 12.2-5.4-.1 0 0-.1 0-.2z"/><path d="m123.7 75.7a.37.37 0 0 0 -.1-.3c-.1-.2-.4-.2-.6 0-2.8 2.6-2.1 5.5-1.2 9l.1.5c.8 3.2-2.7 5.4-2.8 5.4a.38.38 0 0 0 -.1.6c.1.2.4.3.5.1 0 0 4.1-2.5 3.1-6.3l-.1-.5c-.9-3.3-1.5-5.9.9-8.1.2-.2.3-.3.3-.4z"/><circle cx="211.6" cy="126.8" r="1.1"/><circle cx="239.7" cy="107.2" r="1.1"/><circle cx="220" cy="158" r="1.1"/><circle cx="166.7" cy="155.8" r="1.1"/><circle cx="171.3" cy="58.7" r="1.1"/><circle cx="125.9" cy="109.4" r="1.1"/><circle cx="200.4" cy="173.9" r="1.6"/><circle cx="123.3" cy="47.2" r="1.6"/><path d="m276.3 91.7a.43.43 0 0 0 -.4-.4l-7.3-.1a.4.4 0 0 0 0 .8l7.3.1a.37.37 0 0 0 .4-.4z"/><path d="m267.1 68.9v-.1l-3.9-11.3a.37.37 0 0 0 -.5-.2l-11 4a.37.37 0 0 0 -.2.5l3.9 11.3a.37.37 0 0 0 .5.2l11-4a.76.76 0 0 0 .2-.4zm-4.6-10.8 3.7 10.5-10.2 3.8-3.7-10.5z"/><path d="m267.2 132.6c0-.1 0-.1-.1-.2s-.4-.3-.5-.1-4.1 2.5-3.1 6.3l.1.5c.9 3.3 1.5 5.9-.9 8.2-.2.1-.2.4 0 .6s.4.2.6 0c2.8-2.6 2.1-5.5 1.2-9l-.1-.5c-.8-3.2 2.7-5.4 2.8-5.4z"/><ellipse cx="258" cy="116.1" rx="2.3" ry="2.4"/><circle cx="269.7" cy="169.6" r="1.6"/><path d="m267.5 208.6a5.61 5.61 0 0 0 -5.6-5.7 5.68 5.68 0 0 0 -5.6 5.7 5.6 5.6 0 1 0 11.2 0zm-10.4 0a4.82 4.82 0 0 1 4.8-4.9 4.89 4.89 0 0 1 4.8 4.9 4.82 4.82 0 0 1 -4.8 4.9 4.89 4.89 0 0 1 -4.8-4.9z"/><path d="m266.1 245.2a.37.37 0 0 0 -.1-.3l-5.9-6.7c-.1-.2-.4-.2-.6 0a.38.38 0 0 0 0 .6l5.9 6.7c.1.2.4.2.6 0a.44.44 0 0 0 .1-.3z"/><circle cx="256.7" cy="192.1" r="1.1"/><path d="m294.6 230.9c0-.1 0-.1-.1-.2s-.3-.3-.5-.1l-6.4 3.8a.38.38 0 0 0 -.1.6c.1.2.3.3.5.1l6.4-3.8a.52.52 0 0 0 .2-.4z"/><path d="m289.8 200.4c0-.1-.1-.3-.2-.3l-4.1-2.8a.45.45 0 0 0 -.5 0l-3.9 3.1a.44.44 0 0 0 -.1.5l1.7 4.7c.1.2.2.3.4.3l4.9-.2c.2 0 .3-.1.4-.3l1.4-4.8zm-4.5-2.3 3.6 2.5-1.2 4.3-4.3.2-1.5-4.2z"/><path d="m286.6 134.3a.37.37 0 0 0 -.1-.3l-4.9-5.6c-.1-.2-.4-.2-.6 0s-.2.4 0 .6l4.9 5.6c.1.2.4.2.6 0a.37.37 0 0 0 .1-.3z"/><path d="m299.4 173.2v-.1l-3.9-11.3a.22.22 0 0 0 -.2-.2c-.1 0-.2-.1-.3 0l-11 4a.37.37 0 0 0 -.2.5l3.9 11.3a.22.22 0 0 0 .2.2c.1 0 .2.1.3 0l11-4a.52.52 0 0 0 .2-.4zm-4.6-10.7 3.7 10.5-10.2 3.8-3.7-10.5z"/><path d="m287.8 48.2a.37.37 0 0 0 -.1-.3c-.1-.2-.4-.2-.6 0-2.8 2.6-2.1 5.5-1.2 9l.1.5c.8 3.2-2.7 5.4-2.8 5.4a.38.38 0 0 0 -.1.6c.1.2.4.3.5.1 0 0 4.1-2.5 3.1-6.3l-.1-.5c-.9-3.3-1.5-5.9.9-8.1.2-.2.3-.3.3-.4z"/><circle cx="288.4" cy="109.4" r="1.1"/><circle cx="265.7" cy="44.6" r="1.6"/><circle cx="210.6" cy="83.1" r="1.6"/><circle cx="152.5" cy="92.2" r="1.6"/><path d="m154.5 57a.37.37 0 0 0 -.1-.3l-7.9-8.8c-.1-.1-.2-.2-.4-.1s-.2.1-.3.3l-2.7 10.5a.6.6 0 0 0 .1.4c.1.1.2.1.4.1l10.6-1.7a.32.32 0 0 0 .3-.3zm-8.1-8 7 7.7-9.3 1.5z"/><path d="m204.4 149.5v-.1c0-.1-.2-.2-.3-.3l-8.9-1.4a.6.6 0 0 0 -.4.1c-.1.1-.1.2-.1.4l2.2 8.8a.32.32 0 0 0 .3.3.6.6 0 0 0 .4-.1l6.7-7.4a.37.37 0 0 0 .1-.3zm-8.8-.9 7.6 1.2-5.7 6.3z"/></g><g clip-path="url(#e)" fill="#009eed"><path d="m15 255a5.44 5.44 0 0 0 -5.3-5.5 5.53 5.53 0 0 0 -5.4 5.5 5.44 5.44 0 0 0 5.3 5.5 5.53 5.53 0 0 0 5.4-5.5zm-10 0a4.67 4.67 0 0 1 4.6-4.7 4.7 4.7 0 0 1 0 9.4 4.67 4.67 0 0 1 -4.6-4.7z"/><path d="m116.3 258.4v-.1l-3.8-10.8a.37.37 0 0 0 -.5-.2l-10.5 3.9a.37.37 0 0 0 -.2.5l3.8 10.8a.37.37 0 0 0 .5.2l10.5-3.9a.52.52 0 0 0 .2-.4zm-4.4-10.2 3.5 10-9.8 3.6-3.5-10z"/><path d="m74.4 245.9c0-.2-.1-.4-.3-.4-6.4-.6-11.4 4.9-11.6 5.1a.35.35 0 0 0 .5.5c0-.1 5-5.5 11-4.9.2.1.4-.1.4-.3z"/><path d="m92.1 245.3c0-.1-.1-.3-.2-.3s-3.5-2.1-2.7-5.2l.1-.4c.9-3.3 1.6-6.1-1.1-8.6a.35.35 0 0 0 -.5.5c2.3 2.1 1.7 4.6.9 7.8l-.1.4c-.9 3.6 2.8 5.9 3 6a.44.44 0 0 0 .5-.1c.1 0 .1 0 .1-.1z"/><circle cx="14.6" cy="239.2" r="1"/><ellipse cx="40.6" cy="250.9" rx="1.5" ry="1.6"/><path d="m222.7 240.8a3.2 3.2 0 1 0 -3.2 3.3 3.24 3.24 0 0 0 3.2-3.3zm-5.6 0a2.4 2.4 0 1 1 2.4 2.5 2.39 2.39 0 0 1 -2.4-2.5z"/><path d="m166.8 231.1a.37.37 0 0 0 -.1-.3.45.45 0 0 0 -.5 0l-4.7 5.3a.35.35 0 0 0 .5.5l4.7-5.3a.35.35 0 0 0 .1-.2z"/><path d="m248.9 246.9v-.2l-2.3-4.2a.52.52 0 0 0 -.4-.2l-4.6.9a.32.32 0 0 0 -.3.3l-.6 4.8a.52.52 0 0 0 .2.4l4.3 2c.1.1.3 0 .4-.1l3.2-3.5c.1 0 .1-.1.1-.2zm-2.8-3.8 2 3.7-2.8 3.1-3.8-1.8.5-4.2z"/><path d="m204.2 253.4c0-.9-.1-4.2-1.3-5.3a1.29 1.29 0 0 0 -1.2-.4 9.59 9.59 0 0 0 -2.7 1.1c-2.4 1.3-4.3 2.1-5.4.4a14.65 14.65 0 0 1 -1.8-4.6c-.5-1.7-.9-3.2-1.9-3.8a.36.36 0 1 0 -.4.6c.8.5 1.2 1.8 1.6 3.4a17.66 17.66 0 0 0 1.9 4.9c1.6 2.5 4.3 1 6.4-.1a6.46 6.46 0 0 1 2.4-1 .73.73 0 0 1 .6.2c.9.9 1.1 3.8 1.1 4.9a.4.4 0 0 0 .8 0c-.1-.2-.1-.2-.1-.3z"/><ellipse cx="136.1" cy="248.9" rx="1.5" ry="1.6"/><path d="m293.3 249.8a.37.37 0 0 0 -.1-.3.28.28 0 0 0 -.5 0c-2.7 2.5-2 5.3-1.1 8.6l.1.4c.8 3.1-2.6 5.2-2.7 5.2s-.2.3-.1.5.3.2.5.1c0 0 4-2.4 3-6l-.1-.4c-.8-3.2-1.5-5.6.9-7.8 0-.1.1-.2.1-.3z"/><ellipse cx="272.1" cy="246.4" rx="1.5" ry="1.6"/><path d="m165.9 258.3a.37.37 0 0 0 -.1-.3l-7.6-8.4c-.1-.1-.2-.1-.4-.1s-.2.1-.3.3l-2.5 10a.6.6 0 0 0 .1.4.37.37 0 0 0 .3.1l10.1-1.6a.32.32 0 0 0 .3-.3.1.1 0 0 0 .1-.1zm-7.7-7.7 6.6 7.4-8.9 1.4z"/></g><g clip-path="url(#c)" fill="#fff"><circle cx="6.4" cy="6.1" r="1.4"/><circle cx="18" cy="6.1" r="1.4"/><circle cx="29.6" cy="6.1" r="1.4"/><circle cx="6.4" cy="16.1" r="1.4"/><circle cx="18" cy="16.1" r="1.4"/><circle cx="29.6" cy="16.1" r="1.4"/><circle cx="6.4" cy="26" r="1.4"/><circle cx="18" cy="26" r="1.4"/><circle cx="29.6" cy="26" r="1.4"/><circle cx="6.4" cy="35.9" r="1.4"/><circle cx="18" cy="35.9" r="1.4"/><circle cx="29.6" cy="35.9" r="1.4"/></g><g clip-path="url(#c)" fill="#fff"><circle cx="268" cy="188.2" r="1.4"/><circle cx="279.6" cy="188.2" r="1.4"/><circle cx="291.2" cy="188.2" r="1.4"/><circle cx="268" cy="198.1" r="1.4"/><circle cx="279.6" cy="198.1" r="1.4"/><circle cx="291.2" cy="198.1" r="1.4"/><circle cx="268" cy="208" r="1.4"/><circle cx="279.6" cy="208" r="1.4"/><circle cx="291.2" cy="208" r="1.4"/><circle cx="268" cy="217.9" r="1.4"/><circle cx="279.6" cy="217.9" r="1.4"/><circle cx="291.2" cy="217.9" r="1.4"/><circle cx="268" cy="227.9" r="1.4"/><circle cx="279.6" cy="227.9" r="1.4"/><circle cx="291.2" cy="227.9" r="1.4"/></g><g clip-path="url(#f)"><ellipse cx="241.94" cy="175.03" fill="#00416d" rx="67.8" ry="4.1"/><path d="m282 93.13h-75.1a3.59 3.59 0 0 1 -3.6-3.6v-11.7a3.36 3.36 0 0 1 3.6-3.6h75.1a3.59 3.59 0 0 1 3.6 3.6v11.7a3.59 3.59 0 0 1 -3.6 3.6z" fill="#136add"/><path d="m206.94 89.83a.27.27 0 0 1 -.3-.3v-12h75.36a.27.27 0 0 1 .3.3v11.7a.27.27 0 0 1 -.3.3z" fill="#0a4e99"/><path d="m261.64 80h18.36v7.6h-18.4z" fill="#78f2ff"/><path d="m245.74 83.23h4.7v1.2h-4.7z" fill="#78f2ff"/><path d="m229 83.23h4.7v1.2h-4.7z" fill="#78f2ff"/><path d="m212.44 83.23h4.7v1.2h-4.7z" fill="#39b54a"/><path d="m208.94 93.13h73.4v1.4h-73.4z" fill="#0a4e99"/><path d="m282 113.43h-75.1a3.59 3.59 0 0 1 -3.6-3.6v-11.7a3.36 3.36 0 0 1 3.6-3.6h75.1a3.59 3.59 0 0 1 3.6 3.6v11.7a3.59 3.59 0 0 1 -3.6 3.6z" fill="#136add"/><path d="m206.94 110.13a.27.27 0 0 1 -.3-.3v-12h75.36a.27.27 0 0 1 .3.3v11.7a.27.27 0 0 1 -.3.3z" fill="#0a4e99"/><path d="m261.64 100.33h18.36v7.6h-18.4z" fill="#78f2ff"/><path d="m245.74 103.43h4.7v1.2h-4.7z" fill="#78f2ff"/><path d="m229 103.43h4.7v1.2h-4.7z" fill="#78f2ff"/><path d="m212.44 103.43h4.7v1.2h-4.7z" fill="#39b54a"/><path d="m208.94 113.43h73.4v1.4h-73.4z" fill="#0a4e99"/><path d="m282 133.73h-75.1a3.59 3.59 0 0 1 -3.6-3.6v-11.7a3.36 3.36 0 0 1 3.6-3.6h75.1a3.59 3.59 0 0 1 3.6 3.6v11.7a3.65 3.65 0 0 1 -3.6 3.6z" fill="#136add"/><path d="m206.94 130.43a.27.27 0 0 1 -.3-.3v-12h75.36a.27.27 0 0 1 .3.3v11.7a.27.27 0 0 1 -.3.3z" fill="#0a4e99"/><path d="m261.64 120.63h18.36v7.6h-18.4z" fill="#78f2ff"/><path d="m245.74 123.73h4.7v1.2h-4.7z" fill="#78f2ff"/><path d="m229 123.73h4.7v1.2h-4.7z" fill="#78f2ff"/><path d="m212.44 123.73h4.7v1.2h-4.7z" fill="#39b54a"/><path d="m208.94 133.73h73.4v1.4h-73.4z" fill="#0a4e99"/><path d="m282 153.93h-75.1a3.59 3.59 0 0 1 -3.6-3.6v-11.7a3.36 3.36 0 0 1 3.6-3.6h75.1a3.59 3.59 0 0 1 3.6 3.6v11.7a3.59 3.59 0 0 1 -3.6 3.6z" fill="#136add"/><path d="m206.94 150.73a.27.27 0 0 1 -.3-.3v-12h75.36a.27.27 0 0 1 .3.3v11.7a.27.27 0 0 1 -.3.3z" fill="#0a4e99"/><path d="m261.64 140.83h18.36v7.6h-18.4z" fill="#78f2ff"/><path d="m245.74 144h4.7v1.2h-4.7z" fill="#78f2ff"/><path d="m229 144h4.7v1.2h-4.7z" fill="#78f2ff"/><path d="m212.44 144h4.7v1.2h-4.7z" fill="#39b54a"/><path d="m208.94 153.93h73.4v1.4h-73.4z" fill="#0a4e99"/><path d="m282 174.23h-75.1a3.59 3.59 0 0 1 -3.6-3.6v-11.7a3.36 3.36 0 0 1 3.6-3.6h75.1a3.59 3.59 0 0 1 3.6 3.6v11.7a3.59 3.59 0 0 1 -3.6 3.6z" fill="#136add"/><path d="m206.94 170.93a.27.27 0 0 1 -.3-.3v-12h75.36a.27.27 0 0 1 .3.3v11.7a.27.27 0 0 1 -.3.3z" fill="#0a4e99"/><path d="m261.64 161.13h18.36v7.6h-18.4z" fill="#78f2ff"/><path d="m245.74 164.23h4.7v1.2h-4.7z" fill="#78f2ff"/><path d="m229 164.23h4.7v1.2h-4.7z" fill="#78f2ff"/><path d="m212.44 164.23h4.7v1.2h-4.7z" fill="#39b54a"/><path d="m208.94 174.23h73.4v1.4h-73.4z" fill="#0a4e99"/><path d="m217.24 144.13a4.87 4.87 0 0 1 -.1 1.2h-44.9a6.92 6.92 0 0 1 9.5-6.5 12.85 12.85 0 0 1 25.3-2.6 6.45 6.45 0 0 1 2-.3 8.24 8.24 0 0 1 8.2 8.2z" fill="#e6f8fe" stroke="#27aae1" stroke-linecap="round" stroke-linejoin="round"/><path d="m308 112.13a4.87 4.87 0 0 1 -.1 1.2h-44.9a6.92 6.92 0 0 1 9.5-6.5 12.85 12.85 0 0 1 25.3-2.6 6.45 6.45 0 0 1 2-.3 8.17 8.17 0 0 1 8.2 8.2z" fill="#e6f8fe" stroke="#27aae1" stroke-linecap="round" stroke-linejoin="round"/><path d="m260.54 84.83h-15.4a5.8 5.8 0 0 1 -5.8-5.8v-13.8a5.8 5.8 0 0 1 5.8-5.8h15.4a5.8 5.8 0 0 1 5.8 5.8v13.77a5.8 5.8 0 0 1 -5.8 5.83z" fill="#ff675c"/><g stroke="#fff" stroke-miterlimit="10"><path d="m261.54 72.13a8.24 8.24 0 0 1 -1.7 5.1 8.8 8.8 0 0 1 -14.2 0 8.91 8.91 0 0 1 -1.7-5.1 8.24 8.24 0 0 1 1.7-5.1 8.8 8.8 0 0 1 14.2 0 8.24 8.24 0 0 1 1.7 5.1z" fill="none"/><ellipse cx="252.84" cy="72.13" fill="none" rx="4.6" ry="8.7"/><path d="m252.84 63.43v17.4" fill="#fff"/><path d="m259.94 77.23a8.8 8.8 0 0 1 -14.2 0 14.91 14.91 0 0 1 7.1-1.6 16.19 16.19 0 0 1 7.1 1.6z" fill="none"/><path d="m259.94 67a16.55 16.55 0 0 1 -14.2 0 8.8 8.8 0 0 1 14.2 0z" fill="none"/><path d="m261.54 72.13h-17.54" fill="#fff"/></g><path d="m288.14 163.23h-11.7a7.38 7.38 0 0 1 -7.4-7.4v-10.1a7.38 7.38 0 0 1 7.4-7.4h11.7a7.38 7.38 0 0 1 7.4 7.4v10.1a7.32 7.32 0 0 1 -7.4 7.4z" fill="#fda801"/><g fill="#fff"><path d="m274.84 147.63c0-2.4 1.4-3.6 3.1-3.6s3.1 1.2 3.1 3.6-1.4 3.7-3.1 3.7-3.1-1.33-3.1-3.7zm4.1 0c0-1.3-.3-1.9-1-1.9s-1 .6-1 1.9.4 1.9 1 1.9 1-.6 1-1.9zm-1.5 8.6 4-6.1 3.9-6.1 1.8.4-4 6.1-3.9 6.1zm6.2-3.2c0-2.4 1.4-3.7 3.1-3.7s3.1 1.2 3.1 3.6-1.4 3.6-3.1 3.6-3.1-1.1-3.1-3.5zm4.1 0c0-1.3-.4-1.9-1-1.9s-1 .6-1 1.9.3 1.9 1 1.9 1-.6 1-1.93z"/><path d="m295.84 76.53-.3 2.4a2.25 2.25 0 0 1 -1.9 2.1l-2.1.4a.49.49 0 0 0 0 .9l2.2.4a2.25 2.25 0 0 1 1.8 2.1l.3 2.4a.4.4 0 0 0 .8 0l.3-2.4a2.25 2.25 0 0 1 1.9-2.1l2.1-.4a.49.49 0 0 0 0-.9l-2.2-.4a2.36 2.36 0 0 1 -1.8-2.1l-.3-2.5a.41.41 0 0 0 -.8.1z"/><path d="m284.94 49.93-.3 2.4a2.25 2.25 0 0 1 -1.9 2.1l-2.1.4a.49.49 0 0 0 0 .9l2.2.4a2.25 2.25 0 0 1 1.8 2.1l.3 2.4a.4.4 0 0 0 .8 0l.3-2.4a2.25 2.25 0 0 1 1.9-2.1l2.1-.4a.49.49 0 0 0 0-.9l-2.2-.4a2.36 2.36 0 0 1 -1.8-2.1l-.3-2.5a.41.41 0 0 0 -.8.1z"/><path d="m171 149.23-.3 2.4a2.25 2.25 0 0 1 -1.9 2.1l-2.1.4a.49.49 0 0 0 0 .9l2.2.4a2.25 2.25 0 0 1 1.8 2.1l.3 2.4a.4.4 0 0 0 .8 0l.3-2.4a2.25 2.25 0 0 1 1.9-2.1l2.1-.4a.49.49 0 0 0 0-.9l-2.2-.4a2.36 2.36 0 0 1 -1.8-2.1l-.3-2.5a.41.41 0 0 0 -.8.1z"/><path d="m193.24 155.53-.3 2.1a2.13 2.13 0 0 1 -1.7 1.9l-1.9.3a.42.42 0 0 0 0 .8l1.9.3a2 2 0 0 1 1.6 1.8l.3 2.1a.35.35 0 0 0 .7 0l.3-2.1a2.13 2.13 0 0 1 1.7-1.9l1.9-.3a.42.42 0 0 0 0-.8l-1.9-.3a2 2 0 0 1 -1.6-1.8l-.3-2.2a.37.37 0 0 0 -.7.1z"/></g><path d="m219.94 125.13h-17.3a4.91 4.91 0 0 1 -4.9-4.9v-17.4a4.78 4.78 0 0 1 4.9-4.9h17.3a4.62 4.62 0 0 1 4.9 4.9v17.3a4.93 4.93 0 0 1 -4.9 5z" fill="#ff675c"/><path d="m211.24 104.23a1.56 1.56 0 0 1 1.8.8 3.4 3.4 0 0 1 .3 2 11 11 0 0 1 -.2 1.8c0 .2.1.4.3.3a11.33 11.33 0 0 1 2.6-.1 5.08 5.08 0 0 1 1.7.3c.1 0 .2.1.3.1a.91.91 0 0 1 .5 1.2c-.1.2-.2.5-.3.7s-.1.3 0 .4.2.3.3.5a.86.86 0 0 1 -.4 1l-.1.1c-.2.1-.2.2-.2.4a3.4 3.4 0 0 1 .1 1c-.1.3-.2.5-.5.6-.1.1-.2.2-.2.3a2.28 2.28 0 0 1 -.3 1.1 1 1 0 0 1 -1 .6h-6.1c-.1 0-.2 0-.2-.1-.3-.2-.6-.3-.9-.5-.1-.1-.2-.1-.2-.3v-5.8c0-.1 0-.2.2-.3a6 6 0 0 0 2.4-3.5 7.58 7.58 0 0 0 .1-2.6z" fill="#fff"/><path d="m208.14 113.83v2.9c0 .5-.2.7-.6.7h-3a.53.53 0 0 1 -.6-.6v-5.9a.53.53 0 0 1 .6-.6h3a.53.53 0 0 1 .6.6z" fill="#fff"/></g><path d="m232.4 23.5a3.28 3.28 0 0 0 -.5-2.1 1.76 1.76 0 0 0 -.9-.8 6.27 6.27 0 0 0 -1.6-.2h-2.1a.1.1 0 0 0 -.1.1l-3.4 12.7v.1h1.5a6.85 6.85 0 0 0 3.6-.8 4.73 4.73 0 0 0 1.6-2 16.16 16.16 0 0 0 1.3-3.4 16.41 16.41 0 0 0 .6-3.6zm-6.3 8.1 2.6-9.6h.2c.9 0 1.4.3 1.5 1a10.11 10.11 0 0 1 -.6 4 10.58 10.58 0 0 1 -1.5 3.6 2.46 2.46 0 0 1 -2.2 1z" fill="#fff"/><path d="m237.6 28.9c.2-.8.3-1.5.4-2a5.72 5.72 0 0 0 -.1-1.4 1.46 1.46 0 0 0 -.6-.9 2.13 2.13 0 0 0 -1.2-.3q-2.7 0-3.9 4.5c-.5 1.9-.5 3.1.1 3.8a1.75 1.75 0 0 0 1.5.6c1.7.1 3-1.4 3.8-4.3zm-3.5 2.8q-.45 0-.6-.6a9.79 9.79 0 0 1 .4-2.3 18.62 18.62 0 0 1 .8-2.3 1.21 1.21 0 0 1 .9-.6c.3 0 .5.2.5.6a9.79 9.79 0 0 1 -.4 2.3 12 12 0 0 1 -.8 2.2.85.85 0 0 1 -.8.7z" fill="#fff"/><path d="m247.6 25a1.58 1.58 0 0 0 -1.3-.5 3.11 3.11 0 0 0 -2.1 1.1 1.22 1.22 0 0 0 -1.3-1.1 2.42 2.42 0 0 0 -1.9 1l.2-.8v-.1c0-.1 0 0-.1 0h-1.6a.1.1 0 0 0 -.1.1l-2.3 8.5v.1h1.7a.1.1 0 0 0 .1-.1l1.5-5.6c.2-.6.3-1 .6-1.2a1.14 1.14 0 0 1 .8-.3c.2 0 .3 0 .4.1l.2.2v.5a3.09 3.09 0 0 1 -.2.8l-1.5 5.6v.1h1.7a.1.1 0 0 0 .1-.1l1.5-5.6a5.89 5.89 0 0 1 .5-1.3 1.14 1.14 0 0 1 .8-.3c.3 0 .5.1.5.3s0 .6-.2 1.3l-1.5 5.6v.1h1.7a.1.1 0 0 0 .1-.1l1.8-6.8a2.29 2.29 0 0 0 -.1-1.5z" fill="#fff"/><path d="m254.3 24.5h-1.6a.1.1 0 0 0 -.1.1l-.2.7a1.29 1.29 0 0 0 -1.3-.9 2.4 2.4 0 0 0 -1.9 1.1 10.44 10.44 0 0 0 -1.4 3.3 7.6 7.6 0 0 0 -.4 3.4 1.16 1.16 0 0 0 1.3 1.1 1.69 1.69 0 0 0 1-.3 2.31 2.31 0 0 0 .7-.7l-.2.8v.1h1.7a.1.1 0 0 0 .1-.1zm-2.8 4.3c-.3 1-.6 1.8-.8 2.3s-.6.7-.9.7-.5-.2-.6-.6a9.79 9.79 0 0 1 .4-2.3 14 14 0 0 1 .8-2.3 1.21 1.21 0 0 1 .9-.6c.3 0 .5.2.5.6a5 5 0 0 1 -.3 2.2z" fill="#fff"/><path d="m256.8 24.6h-1.6a.1.1 0 0 0 -.1.1l-2.3 8.5v.1h1.7a.1.1 0 0 0 .1-.1z" fill="#fff"/><path d="m256.3 23.3a1.61 1.61 0 0 0 .9-.3 1 1 0 0 0 .5-.8 1.06 1.06 0 0 0 -.1-.8.91.91 0 0 0 -.7-.3 1.61 1.61 0 0 0 -.9.3 1 1 0 0 0 -.5.8.75.75 0 0 0 .1.8.91.91 0 0 0 .7.3z" fill="#fff"/><path d="m264.8 20.5h-1.8a.1.1 0 0 0 -.1.1l-1.3 4.7a17.42 17.42 0 0 0 -.5 2.2l-.3 1.5c0-1.2 0-2.3-.1-3.4l-.3-5.1a.1.1 0 0 0 -.1-.1h-1.6a.1.1 0 0 0 -.1.1l-3.4 12.7v.1h1.8a.1.1 0 0 0 .1-.1l1.4-5.5c0-.2.1-.3.1-.4s.1-.2.1-.3l.3-1.6.2-.9v1.3a8.08 8.08 0 0 0 .1 1.6l.4 5.7a.1.1 0 0 0 .1.1h1.6a.1.1 0 0 0 .1-.1z" fill="#fff"/><path d="m268.2 30.1h-1.5a.1.1 0 0 0 -.1.1c-.3 1.1-.7 1.6-1.4 1.6a.52.52 0 0 1 -.4-.2c-.3-.3-.2-1.2.1-2.4h3.5a.1.1 0 0 0 .1-.1l.1-.2c.5-2 .5-3.3 0-4a1.68 1.68 0 0 0 -1.4-.6 3 3 0 0 0 -2.3 1.1 9 9 0 0 0 -1.5 3.4c-.2.8-.3 1.4-.4 2a5.72 5.72 0 0 0 .1 1.4 1.24 1.24 0 0 0 .6.8 2 2 0 0 0 1.1.3c1.6 0 2.7-1.1 3.4-3.2zm-1.4-4.3c.3 0 .4.1.5.4a4 4 0 0 1 -.2 1.7h-1.8a6.42 6.42 0 0 1 .7-1.6 1 1 0 0 1 .8-.5z" fill="#fff"/><path d="m272.9 29.3-.3-.6a3.19 3.19 0 0 0 -.6-.7c-.6-.5-.8-1-.7-1.4 0-.1.1-.2.2-.3l.3-.3c.1-.1.2-.1.3-.2s.3-.1.4-.1a1.16 1.16 0 0 1 1 .4h.1l.4-1.5v-.1a2.2 2.2 0 0 0 -1.3-.4 2.81 2.81 0 0 0 -1.9.7 3.37 3.37 0 0 0 -1.1 1.7 3.3 3.3 0 0 0 0 1.4 3.48 3.48 0 0 0 1 1.3l.4.4c.1.1.2.2.2.3a.64.64 0 0 1 0 .6 1.2 1.2 0 0 1 -1.3 1 1.61 1.61 0 0 1 -1.1-.5h-.1l-.4 1.5v.1a2 2 0 0 0 1.3.4 2.88 2.88 0 0 0 2-.7 3.47 3.47 0 0 0 1.2-1.9 2 2 0 0 0 0-1.1z" fill="#fff"/><path d="m276.5 23.3a1.61 1.61 0 0 0 .9-.3 1 1 0 0 0 .5-.8 1.06 1.06 0 0 0 -.1-.8.91.91 0 0 0 -.7-.3 1.61 1.61 0 0 0 -.9.3 1 1 0 0 0 -.5.8.75.75 0 0 0 .1.8.91.91 0 0 0 .7.3z" fill="#fff"/><path d="m277 24.6h-1.6a.1.1 0 0 0 -.1.1l-2.3 8.5v.1h1.7a.1.1 0 0 0 .1-.1z" fill="#fff"/><path d="m283.1 24.5h-1.6a.1.1 0 0 0 -.1.1l-.2.7a1.29 1.29 0 0 0 -1.3-.9 2.4 2.4 0 0 0 -1.9 1.1 10.44 10.44 0 0 0 -1.4 3.3 7.6 7.6 0 0 0 -.4 3.4 1.16 1.16 0 0 0 1.3 1.1 1.69 1.69 0 0 0 1-.3 2.31 2.31 0 0 0 .7-.7l-.2.8v.1h1.7a.1.1 0 0 0 .1-.1zm-2.8 4.3c-.3 1-.6 1.8-.8 2.3s-.6.7-.9.7-.5-.2-.6-.6a9.79 9.79 0 0 1 .4-2.3 14 14 0 0 1 .8-2.3 1.21 1.21 0 0 1 .9-.6c.3 0 .5.2.5.6a5 5 0 0 1 -.3 2.2z" fill="#fff"/><path d="m221.4 22.2-8.9 4.3 8.9 6.8z" fill="#fff"/><path d="m227 15.5-4.8 2.3v15.5z" fill="#fff"/><path d="m160.2 77.9h-132.2a8.24 8.24 0 0 1 -8.2-8.2v-16a8.24 8.24 0 0 1 8.2-8.2h132.2a8.24 8.24 0 0 1 8.2 8.2v15.9a8.26 8.26 0 0 1 -8.2 8.3z" fill="#0566c6"/><path d="m150.2 113.6h-121.6a7.28 7.28 0 0 1 -7.3-7.3v-17.9a7.28 7.28 0 0 1 7.3-7.3h121.7a7.28 7.28 0 0 1 7.3 7.3v17.9a7.49 7.49 0 0 1 -7.4 7.3z" fill="#0566c6"/><g fill="#fff"><path d="m38 68.74a7.68 7.68 0 0 1 -3.94 1.06 6.21 6.21 0 0 1 -4.78-1.9 7.33 7.33 0 0 1 -1.75-5.14 7.19 7.19 0 0 1 1.82-5.12 6.36 6.36 0 0 1 4.87-1.94 7.05 7.05 0 0 1 3.59.89l-.47 3a4.74 4.74 0 0 0 -2.94-1.1 3.16 3.16 0 0 0 -2.55 1.13 4.68 4.68 0 0 0 -.94 3.08 4.61 4.61 0 0 0 1 3.1 3.28 3.28 0 0 0 2.6 1.2 5.83 5.83 0 0 0 3.09-1z"/><path d="m38.92 69.55 4.89-13.66h3.71l4.73 13.25-3.41.55-1-3h-4.7l-.91 2.82zm6.57-10.2-1.49 4.74h3z"/><path d="m64.49 69.12-3.57.57-3-4.81h-.82v4.67h-3.36v-13.61h4.76a6 6 0 0 1 3.86 1.11 3.85 3.85 0 0 1 1.36 3.19 3.89 3.89 0 0 1 -2.56 3.87zm-4.08-8.68a1.83 1.83 0 0 0 -.57-1.44 2.45 2.45 0 0 0 -1.67-.5h-1.09v4h1.05a2.53 2.53 0 0 0 1.69-.52 1.91 1.91 0 0 0 .59-1.54z"/><path d="m69.34 69.55h-3.34v-13.61h3.37z"/><path d="m87.5 69.55h-3.39v-5.55h-4.72v5.52h-3.39v-13.58h3.37v5.15h4.72v-5.15h3.41z"/><path d="m101.67 59a9 9 0 0 1 0 7.38 5.93 5.93 0 0 1 -2.28 2.5 6.54 6.54 0 0 1 -3.45.89 6 6 0 0 1 -4.69-1.94 7.26 7.26 0 0 1 -1.78-5.11 7.33 7.33 0 0 1 1.78-5.13 6.11 6.11 0 0 1 4.73-2 6.5 6.5 0 0 1 3.42.89 5.72 5.72 0 0 1 2.27 2.52zm-3.42 7a6.79 6.79 0 0 0 0-6.47 2.81 2.81 0 0 0 -4.58 0 5.54 5.54 0 0 0 -.83 3.22 5.61 5.61 0 0 0 .83 3.25 2.8 2.8 0 0 0 4.58 0z"/><path d="m113.53 65.45a4.58 4.58 0 0 1 -.38 1.91 3.39 3.39 0 0 1 -1.05 1.33 4.72 4.72 0 0 1 -1.54.76 6.66 6.66 0 0 1 -1.9.26 11.2 11.2 0 0 1 -4.75-1l.49-2.88a9.24 9.24 0 0 0 4.31 1.26 2 2 0 0 0 1.19-.32 1 1 0 0 0 .45-.9 1.2 1.2 0 0 0 -.44-1 7.94 7.94 0 0 0 -1.86-.9 18.1 18.1 0 0 1 -1.77-.79 5.72 5.72 0 0 1 -1.2-.85 2.73 2.73 0 0 1 -.72-1.09 4.21 4.21 0 0 1 -.22-1.45 3.76 3.76 0 0 1 2.3-3.58 5.88 5.88 0 0 1 2.36-.45 9.53 9.53 0 0 1 2.2.24 9.29 9.29 0 0 1 1.9.69l-.52 2.84a7.06 7.06 0 0 0 -3.54-1.11 1.88 1.88 0 0 0 -1.13.29.91.91 0 0 0 -.39.78 1.06 1.06 0 0 0 .4.86 7.3 7.3 0 0 0 1.67.81 8.89 8.89 0 0 1 3.21 1.77 3.37 3.37 0 0 1 .93 2.52z"/><path d="m125.86 58.81h-4v10.74h-3.39v-10.74h-3.85v-2.87h10.77z"/><path d="m130.82 69.55h-3.37v-13.61h3.37z"/><path d="m144.8 69.55h-2.91l-5.37-8.14v8.14h-3.14v-13.61h3.28l5 7.61v-7.61h3.14z"/><path d="m158.46 68.37a8.9 8.9 0 0 1 -5 1.44 7 7 0 0 1 -3.64-.89 5.6 5.6 0 0 1 -2.3-2.47 8.36 8.36 0 0 1 -.76-3.69 8.09 8.09 0 0 1 .81-3.7 6 6 0 0 1 2.43-2.49 7.13 7.13 0 0 1 3.61-.89 8.33 8.33 0 0 1 4.16 1l-.45 2.93a6.74 6.74 0 0 0 -3.62-1.16 3.09 3.09 0 0 0 -2.61 1.15 5 5 0 0 0 -.89 3.12 5.07 5.07 0 0 0 .91 3.18 3.12 3.12 0 0 0 2.63 1.19 4 4 0 0 0 1.83-.44v-2.4h-2.37l-.4-2.51h5.7z"/><path d="m45.72 89.09-5.54 9.7v5.64h-3.8v-5.6l-5.32-9.34 4.05-.55 3.33 6.35 3.23-6.2z"/><path d="m46 104.43 5.55-15.43h4.18l5.33 15-3.84.62-1.14-3.33h-5.29l-1 3.18zm7.41-11.5-1.71 5.34h3.44z"/><path d="m75.62 104.43h-3.29l-6-9.18v9.18h-3.59v-15.34h3.69l5.65 8.58v-8.58h3.54z"/><path d="m91 103.1a10.11 10.11 0 0 1 -5.61 1.62 8 8 0 0 1 -4.11-1 6.41 6.41 0 0 1 -2.58-2.78 9.4 9.4 0 0 1 -.86-4.16 9.08 9.08 0 0 1 .91-4.17 6.74 6.74 0 0 1 2.66-2.81 8 8 0 0 1 4.07-1 9.44 9.44 0 0 1 4.69 1.14l-.51 3.31a7.51 7.51 0 0 0 -4.08-1.32 3.49 3.49 0 0 0 -2.94 1.31 5.62 5.62 0 0 0 -1 3.52 5.73 5.73 0 0 0 1 3.57 3.49 3.49 0 0 0 3 1.34 4.49 4.49 0 0 0 2.06-.48v-2.74h-2.7l-.44-2.82h6.44z"/><path d="m110.05 92.31h-4.52v12.12h-3.82v-12.12h-4.34v-3.22h12.14z"/><path d="m125 92.58a10.12 10.12 0 0 1 0 8.32 6.66 6.66 0 0 1 -2.57 2.81 7.34 7.34 0 0 1 -3.88 1 6.84 6.84 0 0 1 -5.3-2.19 9.3 9.3 0 0 1 0-11.54 6.88 6.88 0 0 1 5.33-2.19 7.42 7.42 0 0 1 3.86 1 6.59 6.59 0 0 1 2.56 2.79zm-3.86 7.82a6.34 6.34 0 0 0 .92-3.64 6.28 6.28 0 0 0 -.92-3.65 3.16 3.16 0 0 0 -5.16 0 7.52 7.52 0 0 0 0 7.28 3.15 3.15 0 0 0 5.16 0z"/><path d="m139.06 94.1a4.73 4.73 0 0 1 -1.67 3.9 7 7 0 0 1 -4.52 1.35h-1v5.09h-3.8v-15.35h4.93a6.89 6.89 0 0 1 4.44 1.28 4.49 4.49 0 0 1 1.62 3.73zm-3.69.06c0-1.47-.86-2.2-2.56-2.2h-1v4.51h.89c1.79 0 2.67-.77 2.67-2.31z"/><path d="m145.52 98.09-.07.74-2.2.51-.25-3.34.69-.23a6.61 6.61 0 0 0 2.29-1 1.68 1.68 0 0 0 .66-1.35 1.27 1.27 0 0 0 -.49-1.08 2.2 2.2 0 0 0 -1.4-.39 7.37 7.37 0 0 0 -4.2 1.58l-.47-3.11a9 9 0 0 1 5.16-1.56 5.43 5.43 0 0 1 3.66 1.12 3.93 3.93 0 0 1 1.3 3.14 4.23 4.23 0 0 1 -1.16 3.08 8.54 8.54 0 0 1 -3.52 1.89zm.51 6.34h-3.6v-3.82h3.57z"/></g><path d="m146.8 135.5h-120.3a5.16 5.16 0 0 1 -5.2-5.2v-7.1a5.16 5.16 0 0 1 5.2-5.2h120.2a5.16 5.16 0 0 1 5.2 5.2v7.1a5.14 5.14 0 0 1 -5.1 5.2z" fill="#9cbd36"/><g fill="#fff"><path d="m29.81 130.28h-3.81v-7h1.3v5.78h2.32z"/><path d="m34.94 130.28h-4.15v-7h4.05v1.13h-2.73v1.67h2.11l.18 1.13h-2.29v1.92h2.83z"/><path d="m40.69 128.24a1.78 1.78 0 0 1 -.69 1.53 3.18 3.18 0 0 1 -1.94.51h-2v-7h2a2.66 2.66 0 0 1 1.73.48 1.63 1.63 0 0 1 .59 1.33 1.45 1.45 0 0 1 -.27.89 1.76 1.76 0 0 1 -.74.56 1.64 1.64 0 0 1 1.32 1.7zm-1.53-3q0-.9-1.14-.9h-.68v1.85h.66a1.4 1.4 0 0 0 .9-.25.85.85 0 0 0 .26-.72zm.25 3a1 1 0 0 0 -.35-.8 1.59 1.59 0 0 0 -1-.28h-.7v2.14h.72a1.63 1.63 0 0 0 1-.27.94.94 0 0 0 .33-.83z"/><path d="m43.21 130.28h-1.34v-7h1.34z"/><path d="m50.38 130.28h-1.38v-3h-3v3h-1.27v-7h1.34v2.76h3v-2.74h1.34z"/><path d="m59.68 130.28h-1.35v-3h-3v3h-1.33v-7h1.35v2.76h3v-2.74h1.35z"/><path d="m65.31 130.28h-4.15v-7h4v1.13h-2.68v1.67h2.11l.18 1.13h-2.29v1.92h2.83z"/><path d="m74.21 130.28h-1.34l-.37-5.15-1.75 5.17h-1.2l-1.76-5.17-.35 5.15h-1.2l.53-7h1.7l1.78 5.27 1.75-5.25h1.68z"/><path d="m75 130.28 2.61-7h1.39l2.56 6.84-1.34.24-.67-1.84h-2.64l-.61 1.77zm3.28-5.56-1 2.69h1.91z"/><path d="m87.69 124.46h-2.18v5.82h-1.34v-5.82h-2.1v-1.16h5.42z"/><path d="m90 128.8-1.15 2.91-.7-.17.47-2.74z"/><path d="m97.12 130.28h-3.86v-7h1.34v5.78h2.33z"/><path d="m102.25 130.28h-4.16v-7h4.06v1.13h-2.73v1.67h2.1l.19 1.13h-2.29v1.92h2.83z"/><path d="m108 128.24a1.78 1.78 0 0 1 -.69 1.53 3.2 3.2 0 0 1 -1.94.51h-2v-7h2a2.68 2.68 0 0 1 1.73.48 1.63 1.63 0 0 1 .59 1.33 1.45 1.45 0 0 1 -.27.89 1.73 1.73 0 0 1 -.75.56 1.64 1.64 0 0 1 1.33 1.7zm-1.53-3q0-.9-1.14-.9h-.68v1.85h.62a1.4 1.4 0 0 0 .9-.25.85.85 0 0 0 .3-.72zm.24 3a1 1 0 0 0 -.34-.8 1.61 1.61 0 0 0 -1-.28h-.7v2.14h.72a1.63 1.63 0 0 0 1-.27.94.94 0 0 0 .32-.83z"/><path d="m110.52 130.28h-1.35v-7h1.35z"/><path d="m117.69 130.28h-1.34v-3h-3v3h-1.35v-7h1.34v2.76h3v-2.74h1.34z"/><path d="m126.42 129.81a3.75 3.75 0 0 1 -2.06.59 3.09 3.09 0 0 1 -2.41-1 3.73 3.73 0 0 1 -.89-2.62 4.25 4.25 0 0 1 .4-1.9 3 3 0 0 1 1.17-1.27 3.34 3.34 0 0 1 1.77-.46 3.47 3.47 0 0 1 1.91.51l-.19 1.27a2.75 2.75 0 0 0 -1.67-.62 1.82 1.82 0 0 0 -1.45.69 3.23 3.23 0 0 0 0 3.59 1.86 1.86 0 0 0 1.5.66 3.13 3.13 0 0 0 1.77-.61z"/><path d="m131.72 130.28h-4.16v-7h4.06v1.13h-2.73v1.67h2.11l.18 1.13h-2.29v1.92h2.83z"/><path d="m137.44 125.44a2 2 0 0 1 -.72 1.69 3 3 0 0 1 -1.95.58h-.6v2.57h-1.33v-7h2a2.9 2.9 0 0 1 1.89.55 1.94 1.94 0 0 1 .71 1.61zm-1.32 0a1 1 0 0 0 -.33-.82 1.47 1.47 0 0 0 -1-.28h-.64v2.26h.59c.93.03 1.38-.36 1.38-1.13z"/><path d="m137.93 130.28 2.62-7h1.45l2.56 6.84-1.34.24-.67-1.84h-2.64l-.61 1.77zm3.29-5.56-1 2.69h1.9z"/><path d="m150.67 124.46h-2.18v5.82h-1.34v-5.82h-2.1v-1.16h5.42z"/><path d="m53.55 196a5.4 5.4 0 0 1 -.34 2 4.26 4.26 0 0 1 -1 1.53 4.36 4.36 0 0 1 -1.61 1 6.19 6.19 0 0 1 -2.18.35h-3.03v-9.67h3.06a6.63 6.63 0 0 1 2.22.35 4.24 4.24 0 0 1 1.6 1 4.17 4.17 0 0 1 .95 1.52 5.46 5.46 0 0 1 .33 1.92zm-1.89 0a3 3 0 0 0 -3.22-3.3h-1.21v6.62h1.18a2.92 2.92 0 0 0 3.25-3.32z"/><path d="m57.18 200.84h-1.86v-9.67h1.86z"/><path d="m65.17 198.08a2.79 2.79 0 0 1 -.43 1.58 2.53 2.53 0 0 1 -1.15 1 4 4 0 0 1 -1.67.32 7 7 0 0 1 -3.05-.67l.28-1.7a5.53 5.53 0 0 0 2.79.86 1.67 1.67 0 0 0 1.06-.31 1 1 0 0 0 .39-.87 1.06 1.06 0 0 0 -.34-.84 5.35 5.35 0 0 0 -1.4-.77 9.4 9.4 0 0 1 -1.21-.57 3.55 3.55 0 0 1 -.81-.6 1.9 1.9 0 0 1 -.47-.74 2.88 2.88 0 0 1 -.15-1 2.43 2.43 0 0 1 .87-2 3.43 3.43 0 0 1 2.26-.73 5.39 5.39 0 0 1 2.55.6l-.28 1.68a4 4 0 0 0 -2.29-.76 1.48 1.48 0 0 0 -1 .29 1 1 0 0 0 -.34.75 1 1 0 0 0 .33.76 5.56 5.56 0 0 0 1.32.71 6.2 6.2 0 0 1 2.13 1.26 2.45 2.45 0 0 1 .61 1.75z"/><path d="m74.5 200.59-2 .35-3.84-4.81v4.71h-1.91v-9.67h1.86v4.24l3.49-4.24h2.23l-3.87 4.53z"/><path d="m83 192.36a6 6 0 0 1 0 7.27 4.23 4.23 0 0 1 -3.31 1.4 4.49 4.49 0 0 1 -2.39-.63 4.14 4.14 0 0 1 -1.59-1.77 5.89 5.89 0 0 1 -.56-2.61 5.82 5.82 0 0 1 .57-2.63 4.14 4.14 0 0 1 1.59-1.77 4.55 4.55 0 0 1 2.4-.63 4.19 4.19 0 0 1 3.29 1.37zm-.61 3.64a4.06 4.06 0 0 0 -.71-2.53 2.48 2.48 0 0 0 -3.89 0 4.88 4.88 0 0 0 0 5.07 2.48 2.48 0 0 0 3.89 0 4.06 4.06 0 0 0 .71-2.54z"/><path d="m93.76 200.84h-1.54l-4.56-6.66v6.66h-1.72v-9.67h1.75l4.31 6.34v-6.34h1.73z"/></g><path d="m139 200.78a10.35 10.35 0 0 1 2.25 7 12.42 12.42 0 0 1 -2.27 7.47 13.66 13.66 0 0 1 -6.14 4.68 23.61 23.61 0 0 1 -8.88 1.56 30.12 30.12 0 0 1 -15.07-3.61l1.43-8.81a26 26 0 0 0 12.62 3.38 9.06 9.06 0 0 0 5.34-1.38 4.49 4.49 0 0 0 1.94-3.92 5 5 0 0 0 -2.12-4.36q-2.11-1.47-6.79-1.47h-3.84l-1.36-8.41h4.89c2.83 0 4.92-.47 6.29-1.41a4.51 4.51 0 0 0 2.06-3.93 4.09 4.09 0 0 0 -1.67-3.46 8.19 8.19 0 0 0 -4.92-1.24 20.23 20.23 0 0 0 -11.76 3.78l-1.42-8.65a25.73 25.73 0 0 1 14.84-4.21q7.54 0 11.82 3.31a10.53 10.53 0 0 1 4.27 8.75 10.41 10.41 0 0 1 -2.12 6.85 13.55 13.55 0 0 1 -6 4 14.07 14.07 0 0 1 6.61 4.08z" fill="#b8d167"/><path d="m179.18 180.08q5.16 6.24 5.15 17.57t-5.15 17.57q-5.15 6.24-13.86 6.24t-13.93-6.24q-5.17-6.24-5.18-17.57t5.18-17.57q5.19-6.26 13.93-6.25t13.86 6.25zm-6 17.57q0-15.21-7.82-15.21a6.3 6.3 0 0 0 -5.9 3.89q-1.95 3.9-1.95 11.32t1.91 11.35a6.3 6.3 0 0 0 5.9 3.89q7.82-.04 7.82-15.24z" fill="#b8d167"/><path d="m212.05 187.61q0 6.36-3.21 9.95a10.39 10.39 0 0 1 -8.11 3.6 10.54 10.54 0 0 1 -8.18-3.56q-3.23-3.57-3.22-9.92t3.23-9.92a11 11 0 0 1 16.28 0c2.16 2.36 3.21 5.66 3.21 9.85zm-7.12 0a12.35 12.35 0 0 0 -1.07-5.71 3.39 3.39 0 0 0 -3.13-2q-4.35 0-4.34 7.82a11.89 11.89 0 0 0 1.12 5.66 3.52 3.52 0 0 0 3.22 2 3.36 3.36 0 0 0 3.14-2 12.55 12.55 0 0 0 1.06-5.77zm.47 33.39-6-1.42 14.74-22.58 14.54-22.79 6.1 1.36-14.87 22.72zm39.41-13.41q0 6.28-3.24 9.88a11.08 11.08 0 0 1 -16.3.05q-3.18-3.54-3.18-9.87t3.21-10a11 11 0 0 1 16.3 0q3.21 3.6 3.21 9.97zm-7.12 0a12.12 12.12 0 0 0 -1.11-5.7 3.44 3.44 0 0 0 -3.16-2 3.4 3.4 0 0 0 -3.21 2 12.73 12.73 0 0 0 -1.06 5.78 12.13 12.13 0 0 0 1.1 5.68 3.47 3.47 0 0 0 3.17 2 3.42 3.42 0 0 0 3.19-2 12.45 12.45 0 0 0 1.08-5.73z" fill="#b8d167"/><path d="m181.7 235.65a2.23 2.23 0 0 1 -.35 1.28 2.1 2.1 0 0 1 -.94.8 3.37 3.37 0 0 1 -1.36.25 5.79 5.79 0 0 1 -2.48-.54l.23-1.39a4.45 4.45 0 0 0 2.27.7 1.33 1.33 0 0 0 .86-.25.84.84 0 0 0 .32-.71.9.9 0 0 0 -.27-.69 4.75 4.75 0 0 0 -1.15-.62 10.57 10.57 0 0 1 -1-.46 3.43 3.43 0 0 1 -.66-.49 1.76 1.76 0 0 1 -.39-.61 2.36 2.36 0 0 1 -.11-.79 2 2 0 0 1 .71-1.62 2.77 2.77 0 0 1 1.83-.59 4.46 4.46 0 0 1 2.08.48l-.23 1.37a3.3 3.3 0 0 0 -1.86-.61 1.19 1.19 0 0 0 -.81.23.76.76 0 0 0 -.27.61.82.82 0 0 0 .26.62 4.42 4.42 0 0 0 1.08.58 4.94 4.94 0 0 1 1.73 1 2 2 0 0 1 .51 1.45z" fill="#fff"/><path d="m187.68 237.9h-4.68v-7.9h4.58v1.28h-3.08v1.89h2.37l.21 1.27h-2.58v2.17h3.19z" fill="#fff"/><path d="m193.29 237.9h-4.35v-7.9h1.52v6.54h2.63z" fill="#fff"/><path d="m193.8 237.9 3-7.92h1.61l2.89 7.72-1.52.27-.78-2.07h-3l-.69 2zm3.71-6.29-1.09 3h2.15z" fill="#fff"/><path d="m211.12 237.9h-1.51l-.42-5.82-2 5.84h-1.35l-2-5.84-.4 5.82h-1.36l.6-7.89h1.92l2 6 2-6h1.89z" fill="#fff"/><path d="m212 237.9 3-7.92h1.61l2.89 7.72-1.52.27-.75-2.07h-3l-.68 2zm3.71-6.29-1.09 3h2.14z" fill="#fff"/><path d="m226.87 237.9h-1.26l-3.71-5.43v5.43h-1.4v-7.9h1.42l3.54 5.17v-5.17h1.41z" fill="#fff"/><path d="m235 230-2.84 4.87v3h-1.52v-3l-2.75-4.7 1.57-.26 2 3.55 1.92-3.47z" fill="#fff"/><path d="m235.4 237.9 2.95-7.92h1.65l2.89 7.72-1.52.27-.75-2.07h-3l-.68 2zm3.7-6.29-1.09 3h2.15z" fill="#fff"/></svg>